<svg width="299" height="267" viewBox="0 0 299 267" fill="none" xmlns="http://www.w3.org/2000/svg">
<path d="M198.565 6.82427C198.565 6.82427 149.088 -12.6422 101.732 14.8105C54.3755 42.2633 31.6022 98.7286 12.0109 143.963C-7.58039 189.136 5.64685 236.055 42.9576 258.329C80.2684 280.603 104.414 249.968 155.888 249.906C207.362 249.844 221.463 257.83 263.391 228.817C305.319 199.805 311.121 128.677 275.994 75.0194C240.805 21.2994 198.565 6.82427 198.565 6.82427Z" fill="#97C1FF"/>
<path opacity="0.7" d="M198.565 6.82427C198.565 6.82427 149.088 -12.6422 101.732 14.8105C54.3755 42.2633 31.6022 98.7286 12.0109 143.963C-7.58039 189.136 5.64685 236.055 42.9576 258.329C80.2684 280.603 104.414 249.968 155.888 249.906C207.362 249.844 221.463 257.83 263.391 228.817C305.319 199.805 311.121 128.677 275.994 75.0194C240.805 21.2994 198.565 6.82427 198.565 6.82427Z" fill="white"/>
<path d="M29.2925 170.419H27.8574V248.909H29.2925V170.419Z" fill="#B8B8B8"/>
<path d="M33.6596 162.869H32.2246V248.909H33.6596V162.869Z" fill="#B8B8B8"/>
<path d="M38.0288 162.869H36.5938V248.909H38.0288V162.869Z" fill="#B8B8B8"/>
<path d="M27.7953 170.294C27.7953 170.294 26.8594 168.297 23.615 168.11C20.3706 167.923 17.8125 169.919 17.8125 169.919C17.8125 169.919 20.6826 169.732 21.9928 170.294C23.2407 170.855 24.8629 171.916 24.8629 171.916C24.8629 171.916 23.8022 172.852 23.0535 174.661C22.3048 176.471 21.2441 179.902 21.2441 179.902C21.2441 179.902 24.6757 177.344 25.6116 175.722C26.5475 174.1 27.7953 173.164 27.7953 173.164C27.7953 173.164 28.3569 175.16 27.9825 176.595C27.6081 178.03 27.421 180.214 27.421 180.214C27.421 180.214 31.0397 178.966 30.291 174.412C29.6047 169.982 27.7953 170.294 27.7953 170.294Z" fill="#97C1FF"/>
<path d="M33.9731 183.022C33.9731 183.022 33.0372 181.026 29.7927 180.839C26.5483 180.651 23.9902 182.648 23.9902 182.648C23.9902 182.648 26.8603 182.461 28.1705 183.022C29.4184 183.584 31.0406 184.645 31.0406 184.645C31.0406 184.645 29.9799 185.58 29.2312 187.39C28.4825 189.199 27.4218 192.631 27.4218 192.631C27.4218 192.631 30.8534 190.073 31.7893 188.45C32.7252 186.828 33.9731 185.892 33.9731 185.892C33.9731 185.892 34.5346 187.889 34.1602 189.324C33.7859 190.759 33.5987 192.943 33.5987 192.943C33.5987 192.943 37.2175 191.695 36.4688 187.14C35.7824 182.648 33.9731 183.022 33.9731 183.022Z" fill="#97C1FF"/>
<path d="M26.5473 188.825C26.5473 188.825 25.6114 186.828 22.367 186.641C19.1226 186.454 16.5645 188.451 16.5645 188.451C16.5645 188.451 19.4345 188.263 20.7448 188.825C21.9926 189.387 23.6148 190.447 23.6148 190.447C23.6148 190.447 22.5541 191.383 21.8054 193.193C21.0567 195.002 19.996 198.433 19.996 198.433C19.996 198.433 23.4276 195.875 24.3635 194.253C25.2994 192.631 26.5473 191.695 26.5473 191.695C26.5473 191.695 27.1088 193.692 26.7345 195.127C26.3601 196.562 26.1729 198.745 26.1729 198.745C26.1729 198.745 29.7917 197.498 29.043 192.943C28.3567 188.451 26.5473 188.825 26.5473 188.825Z" fill="#97C1FF"/>
<path d="M38.2769 211.223C38.2769 211.223 36.4675 210.912 34.7829 213.033C33.0983 215.154 33.2855 217.899 33.2855 217.899C33.2855 217.899 34.5333 215.841 35.5316 215.217C36.5299 214.593 38.0273 214.031 38.0273 214.031C38.0273 214.031 38.1521 215.217 39.0256 216.589C39.8991 217.962 41.7709 220.333 41.7709 220.333C41.7709 220.333 41.6461 216.776 40.9598 215.341C40.2735 213.969 40.2735 212.659 40.2735 212.659C40.2735 212.659 41.8957 213.22 42.7068 214.156C43.5179 215.092 44.9529 216.277 44.9529 216.277C44.9529 216.277 45.8264 213.158 42.3324 211.535C38.9008 209.788 38.2769 211.223 38.2769 211.223Z" fill="#97C1FF"/>
<path d="M38.9006 208.791C38.9006 208.791 38.3391 210.538 40.2108 212.472C42.0826 214.406 44.7655 214.655 44.7655 214.655C44.7655 214.655 42.8937 213.096 42.3946 212.097C41.8954 211.037 41.5211 209.477 41.5211 209.477C41.5211 209.477 42.7065 209.539 44.1416 208.853C45.639 208.167 48.2595 206.669 48.2595 206.669C48.2595 206.669 44.7031 206.295 43.2057 206.732C41.7083 207.231 40.4604 207.044 40.4604 207.044C40.4604 207.044 41.2715 205.484 42.2698 204.86C43.3305 204.174 44.6407 202.926 44.6407 202.926C44.6407 202.926 41.7083 201.678 39.5869 204.86C37.5903 207.979 38.9006 208.791 38.9006 208.791Z" fill="#97C1FF"/>
<path d="M20.7443 214.218C20.7443 214.218 20.1828 215.965 22.0546 217.899C23.9264 219.834 26.6092 220.083 26.6092 220.083C26.6092 220.083 24.7375 218.523 24.2383 217.525C23.7392 216.464 23.3648 214.905 23.3648 214.905C23.3648 214.905 24.5503 214.967 25.9853 214.281C27.4827 213.594 30.1032 212.097 30.1032 212.097C30.1032 212.097 26.5469 211.723 25.0494 212.159C23.552 212.658 22.3042 212.471 22.3042 212.471C22.3042 212.471 23.1153 210.911 24.1135 210.288C25.1118 209.664 26.4845 208.353 26.4845 208.353C26.4845 208.353 23.552 207.106 21.4307 210.288C19.4341 213.407 20.7443 214.218 20.7443 214.218Z" fill="#97C1FF"/>
<path d="M36.7795 221.019C36.7795 221.019 36.218 222.766 38.0897 224.7C39.9615 226.634 42.6444 226.884 42.6444 226.884C42.6444 226.884 40.7726 225.324 40.2735 224.326C39.7743 223.265 39.4 221.705 39.4 221.705C39.4 221.705 40.5854 221.768 42.0205 221.081C43.5179 220.395 46.1384 218.898 46.1384 218.898C46.1384 218.898 42.582 218.523 41.0846 218.96C39.5872 219.459 38.3393 219.272 38.3393 219.272C38.3393 219.272 39.1504 217.712 40.1487 217.088C41.2094 216.402 42.5196 215.154 42.5196 215.154C42.5196 215.154 39.5872 213.906 37.4658 217.088C35.4692 220.208 36.7795 221.019 36.7795 221.019Z" fill="#97C1FF"/>
<path d="M37.0297 190.634C37.0297 190.634 36.0938 188.637 32.8494 188.45C29.605 188.263 27.0469 190.259 27.0469 190.259C27.0469 190.259 29.9169 190.072 31.2272 190.634C32.475 191.195 34.0972 192.256 34.0972 192.256C34.0972 192.256 33.0366 193.192 32.2879 195.001C31.5391 196.81 30.4785 200.242 30.4785 200.242C30.4785 200.242 33.9101 197.684 34.846 196.062C35.7818 194.44 37.0297 193.504 37.0297 193.504C37.0297 193.504 37.5912 195.5 37.2169 196.935C36.8425 198.37 36.6553 200.554 36.6553 200.554C36.6553 200.554 40.2741 199.306 39.5254 194.752C38.8391 190.259 37.0297 190.634 37.0297 190.634Z" fill="#97C1FF"/>
<path d="M30.4783 170.107C30.4783 170.107 29.0433 171.791 30.2912 174.786C31.539 177.781 34.4091 179.216 34.4091 179.216C34.4091 179.216 32.974 176.658 32.9117 175.285C32.8493 173.913 33.1612 171.978 33.1612 171.978C33.1612 171.978 34.4715 172.54 36.4056 172.415C38.3398 172.29 41.8962 171.791 41.8962 171.791C41.8962 171.791 38.1526 169.795 36.2809 169.67C34.4091 169.545 33.0364 168.796 33.0364 168.796C33.0364 168.796 34.5963 167.424 36.0313 167.174C37.4663 166.862 39.5253 166.113 39.5253 166.113C39.5253 166.113 36.8424 163.368 33.0364 165.989C29.2305 168.609 30.4783 170.107 30.4783 170.107Z" fill="#97C1FF"/>
<path d="M35.3455 182.96C35.3455 182.96 33.9105 184.645 35.1583 187.64C36.4062 190.634 39.2763 192.069 39.2763 192.069C39.2763 192.069 37.8412 189.511 37.7788 188.139C37.7164 186.766 38.0284 184.832 38.0284 184.832C38.0284 184.832 39.3387 185.393 41.2728 185.269C43.207 185.144 46.7634 184.645 46.7634 184.645C46.7634 184.645 43.0198 182.648 41.148 182.523C39.2763 182.399 37.9036 181.65 37.9036 181.65C37.9036 181.65 39.4634 180.277 40.8985 180.028C42.3335 179.716 44.3925 178.967 44.3925 178.967C44.3925 178.967 41.7096 176.222 37.9036 178.842C34.2225 181.525 35.3455 182.96 35.3455 182.96Z" fill="#97C1FF"/>
<path d="M38.3397 189.324C38.3397 189.324 36.9046 191.009 38.1525 194.004C39.4003 196.999 42.2704 198.434 42.2704 198.434C42.2704 198.434 40.8354 195.876 40.773 194.503C40.7106 193.13 41.0226 191.196 41.0226 191.196C41.0226 191.196 42.3328 191.758 44.267 191.633C46.2011 191.508 49.7575 191.009 49.7575 191.009C49.7575 191.009 46.014 189.012 44.1422 188.888C42.2704 188.763 40.8978 188.014 40.8978 188.014C40.8978 188.014 42.4576 186.641 43.8926 186.392C45.3276 186.08 47.3866 185.331 47.3866 185.331C47.3866 185.331 44.7037 182.586 40.8978 185.206C37.2166 187.827 38.3397 189.324 38.3397 189.324Z" fill="#97C1FF"/>
<path d="M31.2271 167.612C31.2271 167.612 33.1612 166.613 33.286 163.369C33.3484 160.125 31.2895 157.629 31.2895 157.629C31.2895 157.629 31.539 160.499 31.0399 161.809C30.5408 163.119 29.4801 164.742 29.4801 164.742C29.4801 164.742 28.5442 163.681 26.7348 162.995C24.9254 162.308 21.4314 161.372 21.4314 161.372C21.4314 161.372 24.0519 164.742 25.7365 165.553C27.4211 166.426 28.357 167.612 28.357 167.612C28.357 167.612 26.3604 168.236 24.9254 167.924C23.4904 167.612 21.3066 167.487 21.3066 167.487C21.3066 167.487 22.6793 171.043 27.1715 170.17C31.6638 169.421 31.2271 167.612 31.2271 167.612Z" fill="#97C1FF"/>
<path d="M18.6862 215.965C18.6862 215.965 16.6897 215.154 14.1316 217.213C11.6359 219.335 11.1367 222.517 11.1367 222.517C11.1367 222.517 13.1333 220.395 14.4435 219.958C15.7538 219.459 17.6879 219.147 17.6879 219.147C17.6879 219.147 17.5008 220.52 18.2495 222.392C18.9358 224.201 20.4956 227.446 20.4956 227.446C20.4956 227.446 21.3067 223.265 20.8076 221.456C20.3708 219.646 20.6828 218.149 20.6828 218.149C20.6828 218.149 22.4298 219.21 23.1785 220.52C23.9272 221.83 25.2375 223.515 25.2375 223.515C25.2375 223.515 27.0468 220.146 23.4281 217.276C19.7469 214.468 18.6862 215.965 18.6862 215.965Z" fill="#97C1FF"/>
<path d="M38.2154 204.298C38.2154 204.298 40.1495 203.3 40.2743 200.056C40.3367 196.811 38.2777 194.315 38.2777 194.315C38.2777 194.315 38.5273 197.185 38.0282 198.496C37.529 199.806 36.4684 201.428 36.4684 201.428C36.4684 201.428 35.5949 200.43 33.7231 199.744C31.9137 199.057 28.4197 198.121 28.4197 198.121C28.4197 198.121 31.0402 201.491 32.7248 202.302C34.4094 203.175 35.3453 204.361 35.3453 204.361C35.3453 204.361 33.3487 204.985 31.9137 204.673C30.4787 204.361 28.2949 204.236 28.2949 204.236C28.2949 204.236 29.6676 207.792 34.1598 206.919C38.6521 206.108 38.2154 204.298 38.2154 204.298Z" fill="#97C1FF"/>
<path d="M20.3716 214.593C20.3716 214.593 22.3058 213.595 22.4306 210.35C22.5553 207.106 20.434 204.61 20.434 204.61C20.434 204.61 20.6836 207.48 20.1844 208.791C19.6853 210.101 18.6246 211.723 18.6246 211.723C18.6246 211.723 17.6887 210.662 15.8793 209.976C14.0699 209.29 10.576 208.354 10.576 208.354C10.576 208.354 13.1964 211.723 14.881 212.534C16.5657 213.408 17.5015 214.593 17.5015 214.593C17.5015 214.593 15.505 215.217 14.0699 214.905C12.6349 214.593 10.4512 214.468 10.4512 214.468C10.4512 214.468 11.8238 218.025 16.3161 217.151C20.8084 216.403 20.3716 214.593 20.3716 214.593Z" fill="#97C1FF"/>
<path d="M29.8545 229.068C29.8545 229.068 29.2929 230.815 31.1647 232.749C33.0365 234.683 35.7194 234.933 35.7194 234.933C35.7194 234.933 33.8476 233.373 33.3484 232.375C32.8493 231.314 32.4749 229.754 32.4749 229.754C32.4749 229.754 33.6604 229.817 35.0954 229.13C36.5305 228.444 39.2134 226.947 39.2134 226.947C39.2134 226.947 35.657 226.572 34.1596 227.009C32.6621 227.508 31.4143 227.321 31.4143 227.321C31.4143 227.321 32.2254 225.761 33.2237 225.137C34.2843 224.451 35.5946 223.203 35.5946 223.203C35.5946 223.203 32.6621 221.955 30.5408 225.137C28.4818 228.257 29.8545 229.068 29.8545 229.068Z" fill="#97C1FF"/>
<path d="M27.7331 230.815C27.7331 230.815 25.7365 230.004 23.1784 232.063C20.6827 234.184 20.1836 237.366 20.1836 237.366C20.1836 237.366 22.1802 235.245 23.4904 234.808C24.8006 234.309 26.7348 233.997 26.7348 233.997C26.7348 233.997 26.5476 235.369 27.2964 237.241C27.9827 239.051 29.5425 242.295 29.5425 242.295C29.5425 242.295 30.3536 238.115 29.8545 236.305C29.4177 234.496 29.7297 232.998 29.7297 232.998C29.7297 232.998 31.4767 234.059 32.2254 235.369C32.9741 236.68 34.2843 238.364 34.2843 238.364C34.2843 238.364 36.0937 234.995 32.4749 232.125C28.8562 229.255 27.7331 230.815 27.7331 230.815Z" fill="#97C1FF"/>
<path d="M29.4185 229.442C29.4185 229.442 31.3526 228.444 31.4774 225.199C31.5398 221.955 29.4809 219.459 29.4809 219.459C29.4809 219.459 29.7304 222.329 29.2313 223.639C28.7322 224.95 27.6715 226.572 27.6715 226.572C27.6715 226.572 26.7356 225.511 24.9262 224.825C23.1168 224.138 19.6228 223.203 19.6228 223.203C19.6228 223.203 22.2433 226.572 23.9279 227.383C25.6125 228.256 26.5484 229.442 26.5484 229.442C26.5484 229.442 24.5519 230.066 23.1168 229.754C21.6818 229.442 19.498 229.317 19.498 229.317C19.498 229.317 20.8707 232.873 25.363 232C29.8552 231.251 29.4185 229.442 29.4185 229.442Z" fill="#97C1FF"/>
<path d="M36.1564 212.783C36.1564 212.783 35.5949 214.53 37.4667 216.464C39.3385 218.398 42.0214 218.648 42.0214 218.648C42.0214 218.648 40.1496 217.088 39.6504 216.09C39.1513 215.029 38.7769 213.469 38.7769 213.469C38.7769 213.469 39.9624 213.531 41.3974 212.845C42.8949 212.159 45.5153 210.661 45.5153 210.661C45.5153 210.661 41.959 210.287 40.4615 210.724C38.9641 211.223 37.7163 211.036 37.7163 211.036C37.7163 211.036 38.5274 209.476 39.5257 208.852C40.5863 208.166 41.8966 206.918 41.8966 206.918C41.8966 206.918 38.9641 205.67 36.8428 208.852C34.8462 211.972 36.1564 212.783 36.1564 212.783Z" fill="#97C1FF"/>
<path d="M34.0964 214.531C34.0964 214.531 32.0998 213.72 29.5417 215.779C27.046 217.9 26.5469 221.082 26.5469 221.082C26.5469 221.082 28.5434 218.961 29.8537 218.524C31.1639 218.025 33.0981 217.713 33.0981 217.713C33.0981 217.713 32.9109 219.085 33.6596 220.957C34.346 222.767 35.9058 226.011 35.9058 226.011C35.9058 226.011 36.7169 221.831 36.2177 220.021C35.781 218.212 36.0929 216.714 36.0929 216.714C36.0929 216.714 37.8399 217.775 38.5887 219.085C39.3374 220.396 40.6476 222.08 40.6476 222.08C40.6476 222.08 42.457 218.711 38.8382 215.841C35.1571 213.033 34.0964 214.531 34.0964 214.531Z" fill="#97C1FF"/>
<path d="M35.7818 213.158C35.7818 213.158 37.7159 212.159 37.8407 208.915C37.9031 205.671 35.8442 203.175 35.8442 203.175C35.8442 203.175 36.0937 206.045 35.5946 207.355C35.0954 208.665 34.0348 210.288 34.0348 210.288C34.0348 210.288 33.0989 209.227 31.2895 208.541C29.4801 207.854 25.9861 206.918 25.9861 206.918C25.9861 206.918 28.6066 210.288 30.2912 211.099C31.9758 211.972 32.9117 213.158 32.9117 213.158C32.9117 213.158 30.9151 213.782 29.4801 213.47C28.0451 213.158 25.8613 213.033 25.8613 213.033C25.8613 213.033 27.234 216.589 31.7262 215.716C36.2185 214.967 35.7818 213.158 35.7818 213.158Z" fill="#97C1FF"/>
<path d="M46.6392 219.459C46.6392 219.459 48.5734 218.461 48.6981 215.217C48.7605 211.972 46.7016 209.477 46.7016 209.477C46.7016 209.477 46.9511 212.347 46.452 213.657C45.9529 214.967 44.8922 216.589 44.8922 216.589C44.8922 216.589 43.9563 215.529 42.1469 214.842C40.3375 214.156 36.8435 213.22 36.8435 213.22C36.8435 213.22 39.464 216.589 41.1486 217.4C42.8332 218.274 43.7691 219.459 43.7691 219.459C43.7691 219.459 41.7726 220.083 40.3375 219.771C38.9025 219.459 36.7188 219.335 36.7188 219.335C36.7188 219.335 38.0914 222.891 42.5837 222.017C47.0759 221.269 46.6392 219.459 46.6392 219.459Z" fill="#97C1FF"/>
<path d="M26.5471 207.543C26.5471 207.543 25.9855 209.29 27.8573 211.224C29.7291 213.158 32.412 213.407 32.412 213.407C32.412 213.407 30.5402 211.848 30.0411 210.849C29.5419 209.789 29.1676 208.229 29.1676 208.229C29.1676 208.229 30.353 208.291 31.7881 207.605C33.2855 206.919 35.906 205.421 35.906 205.421C35.906 205.421 32.3496 205.047 30.8522 205.484C29.3547 205.983 28.1069 205.796 28.1069 205.796C28.1069 205.796 28.918 204.236 29.9163 203.612C30.977 202.925 32.2872 201.678 32.2872 201.678C32.2872 201.678 29.3547 200.43 27.2334 203.612C25.2368 206.731 26.5471 207.543 26.5471 207.543Z" fill="#97C1FF"/>
<path d="M24.489 209.29C24.489 209.29 22.4924 208.478 19.9343 210.537C17.3762 212.596 16.9395 215.841 16.9395 215.841C16.9395 215.841 18.936 213.719 20.2463 213.283C21.5565 212.784 23.4907 212.472 23.4907 212.472C23.4907 212.472 23.3035 213.844 24.0522 215.716C24.7385 217.525 26.2983 220.77 26.2983 220.77C26.2983 220.77 27.1095 216.589 26.6103 214.78C26.1736 212.971 26.4855 211.473 26.4855 211.473C26.4855 211.473 28.2325 212.534 28.9812 213.844C29.7299 215.154 31.0402 216.839 31.0402 216.839C31.0402 216.839 32.8496 213.47 29.2308 210.6C25.5496 207.792 24.489 209.29 24.489 209.29Z" fill="#97C1FF"/>
<path d="M26.1743 207.916C26.1743 207.916 28.1085 206.918 28.2333 203.674C28.2957 200.429 26.2367 197.934 26.2367 197.934C26.2367 197.934 26.4863 200.804 25.9872 202.114C25.488 203.424 24.4273 205.046 24.4273 205.046C24.4273 205.046 23.4915 203.986 21.6821 203.299C19.8727 202.613 16.3787 201.677 16.3787 201.677C16.3787 201.677 18.9992 205.046 20.6838 205.857C22.3684 206.731 23.3043 207.916 23.3043 207.916C23.3043 207.916 21.3077 208.54 19.8727 208.228C18.4376 207.916 16.2539 207.792 16.2539 207.792C16.2539 207.792 17.6265 211.348 22.1188 210.475C26.6111 209.726 26.1743 207.916 26.1743 207.916Z" fill="#97C1FF"/>
<path d="M37.8413 224.575C37.8413 224.575 36.032 224.263 34.3474 226.384C32.6628 228.506 32.8499 231.251 32.8499 231.251C32.8499 231.251 34.0978 229.192 35.0961 228.568C36.0944 227.944 37.5918 227.383 37.5918 227.383C37.5918 227.383 37.7166 228.568 38.5901 229.941C39.4636 231.313 41.3353 233.684 41.3353 233.684C41.3353 233.684 41.2106 230.128 40.5242 228.693C39.8379 227.32 39.8379 226.01 39.8379 226.01C39.8379 226.01 41.4601 226.572 42.2712 227.507C43.0823 228.443 44.5174 229.629 44.5174 229.629C44.5174 229.629 45.3909 226.509 41.8969 224.887C38.4653 223.202 37.8413 224.575 37.8413 224.575Z" fill="#97C1FF"/>
<path d="M44.5178 229.566C44.5178 229.566 43.9562 231.313 45.828 233.247C47.6998 235.181 50.3827 235.431 50.3827 235.431C50.3827 235.431 48.5109 233.871 48.0118 232.873C47.5126 231.812 47.1383 230.252 47.1383 230.252C47.1383 230.252 48.3237 230.315 49.7588 229.628C51.2562 228.942 53.8767 227.445 53.8767 227.445C53.8767 227.445 50.3203 227.07 48.8229 227.507C47.3254 228.006 46.0776 227.819 46.0776 227.819C46.0776 227.819 46.8887 226.259 47.887 225.635C48.9477 224.949 50.2579 223.701 50.2579 223.701C50.2579 223.701 47.3254 222.453 45.2041 225.635C43.2075 228.817 44.5178 229.566 44.5178 229.566Z" fill="#97C1FF"/>
<path d="M42.3952 231.313C42.3952 231.313 40.3986 230.502 37.8405 232.561C35.3448 234.682 34.8457 237.864 34.8457 237.864C34.8457 237.864 36.8423 235.743 38.1525 235.306C39.4628 234.807 41.3969 234.495 41.3969 234.495C41.3969 234.495 41.2098 235.868 41.9585 237.739C42.6448 239.549 44.2046 242.793 44.2046 242.793C44.2046 242.793 45.0157 238.613 44.5166 236.804C44.0798 234.994 44.3918 233.497 44.3918 233.497C44.3918 233.497 46.1388 234.557 46.8875 235.868C47.6362 237.178 48.9464 238.862 48.9464 238.862C48.9464 238.862 50.7558 235.493 47.1371 232.623C43.5183 229.816 42.3952 231.313 42.3952 231.313Z" fill="#97C1FF"/>
<path d="M44.1431 229.941C44.1431 229.941 46.0773 228.943 46.202 225.698C46.2644 222.454 44.2055 219.958 44.2055 219.958C44.2055 219.958 44.4551 222.828 43.9559 224.138C43.4568 225.449 42.3961 227.071 42.3961 227.071C42.3961 227.071 41.4602 226.01 39.6508 225.324C37.8414 224.637 34.3474 223.702 34.3474 223.702C34.3474 223.702 36.9679 227.071 38.6525 227.882C40.3371 228.755 41.273 229.941 41.273 229.941C41.273 229.941 39.2765 230.565 37.8414 230.253C36.4064 229.941 34.2227 229.816 34.2227 229.816C34.2227 229.816 35.5953 233.372 40.0876 232.499C44.5174 231.75 44.1431 229.941 44.1431 229.941Z" fill="#97C1FF"/>
<path d="M6.89408 219.147C6.89408 219.147 5.0847 218.835 3.4001 220.957C1.71549 223.078 1.90267 225.823 1.90267 225.823C1.90267 225.823 3.15052 223.764 4.14881 223.14C5.14709 222.516 6.64451 221.955 6.64451 221.955C6.64451 221.955 6.7693 223.14 7.64279 224.513C8.51629 225.886 10.3881 228.257 10.3881 228.257C10.3881 228.257 10.2633 224.7 9.57697 223.265C8.89065 221.893 8.89065 220.582 8.89065 220.582C8.89065 220.582 10.5129 221.144 11.324 222.08C12.1351 223.016 13.5701 224.201 13.5701 224.201C13.5701 224.201 14.4436 221.081 10.9496 219.459C7.51801 217.712 6.89408 219.147 6.89408 219.147Z" fill="#97C1FF"/>
<path d="M13.5702 224.076C13.5702 224.076 13.0086 225.823 14.8804 227.757C16.7522 229.691 19.4351 229.941 19.4351 229.941C19.4351 229.941 17.5633 228.381 17.0641 227.383C16.565 226.322 16.1907 224.762 16.1907 224.762C16.1907 224.762 17.3761 224.824 18.8111 224.138C20.3086 223.452 22.9291 221.954 22.9291 221.954C22.9291 221.954 19.3727 221.58 17.8753 222.017C16.3778 222.516 15.13 222.329 15.13 222.329C15.13 222.329 15.9411 220.769 16.9394 220.145C18 219.459 19.3103 218.211 19.3103 218.211C19.3103 218.211 16.3778 216.963 14.2565 220.145C12.1351 223.327 13.5702 224.076 13.5702 224.076Z" fill="#97C1FF"/>
<path d="M11.4479 225.823C11.4479 225.823 9.45138 225.012 6.89328 227.071C4.39758 229.192 3.89844 232.374 3.89844 232.374C3.89844 232.374 5.895 230.253 7.20525 229.816C8.51549 229.317 10.4497 229.005 10.4497 229.005C10.4497 229.005 10.2625 230.377 11.0112 232.249C11.6975 234.059 13.2573 237.303 13.2573 237.303C13.2573 237.303 14.0684 233.123 13.5693 231.313C13.1325 229.504 13.4445 228.006 13.4445 228.006C13.4445 228.006 15.1915 229.067 15.9402 230.377C16.6889 231.688 17.9992 233.372 17.9992 233.372C17.9992 233.372 19.8086 230.003 16.1898 227.133C12.5086 224.325 11.4479 225.823 11.4479 225.823Z" fill="#97C1FF"/>
<path d="M13.1958 224.451C13.1958 224.451 15.13 223.452 15.2548 220.208C15.3172 216.963 13.2582 214.468 13.2582 214.468C13.2582 214.468 13.5078 217.338 13.0086 218.648C12.5095 219.958 11.4488 221.581 11.4488 221.581C11.4488 221.581 10.5129 220.52 8.70355 219.834C6.89416 219.147 3.40018 218.211 3.40018 218.211C3.40018 218.211 6.02067 221.581 7.70527 222.392C9.38987 223.203 10.3258 224.451 10.3258 224.451C10.3258 224.451 8.3292 225.075 6.89416 224.763C5.45913 224.451 3.27539 224.326 3.27539 224.326C3.27539 224.326 4.64803 227.882 9.1403 227.009C13.6326 226.135 13.1958 224.451 13.1958 224.451Z" fill="#97C1FF"/>
<path d="M18.1246 219.896C18.1246 219.896 16.3152 219.584 14.6306 221.706C12.946 223.827 13.1331 226.572 13.1331 226.572C13.1331 226.572 14.381 224.513 15.3793 223.889C16.3776 223.266 17.875 222.704 17.875 222.704C17.875 222.704 17.9998 223.889 18.8733 225.262C19.7468 226.635 21.6185 229.006 21.6185 229.006C21.6185 229.006 21.4938 225.449 20.8074 224.014C20.1211 222.642 20.1211 221.331 20.1211 221.331C20.1211 221.331 21.7433 221.893 22.5544 222.829C23.3655 223.765 24.8006 224.95 24.8006 224.95C24.8006 224.95 25.6741 221.83 22.1801 220.208C18.7485 218.461 18.1246 219.896 18.1246 219.896Z" fill="#97C1FF"/>
<path d="M24.801 224.887C24.801 224.887 24.2394 226.634 26.1112 228.568C27.983 230.503 30.6659 230.752 30.6659 230.752C30.6659 230.752 28.7941 229.192 28.295 228.194C27.7958 227.133 27.4215 225.574 27.4215 225.574C27.4215 225.574 28.6069 225.636 30.042 224.95C31.5394 224.263 34.1599 222.766 34.1599 222.766C34.1599 222.766 30.6035 222.392 29.1061 222.828C27.6086 223.327 26.3608 223.14 26.3608 223.14C26.3608 223.14 27.1719 221.58 28.1702 220.957C29.2309 220.27 30.5411 219.022 30.5411 219.022C30.5411 219.022 27.6086 217.775 25.4873 220.957C23.4907 224.076 24.801 224.887 24.801 224.887Z" fill="#97C1FF"/>
<path d="M22.6784 226.634C22.6784 226.634 20.6819 225.823 18.1238 227.882C15.628 230.003 15.1289 233.185 15.1289 233.185C15.1289 233.185 17.1255 231.064 18.4357 230.627C19.746 230.128 21.6801 229.816 21.6801 229.816C21.6801 229.816 21.493 231.189 22.2417 233.061C22.928 234.87 24.4878 238.114 24.4878 238.114C24.4878 238.114 25.2989 233.934 24.7998 232.125C24.363 230.315 24.675 228.818 24.675 228.818C24.675 228.818 26.422 229.879 27.1707 231.189C27.9194 232.499 29.2296 234.184 29.2296 234.184C29.2296 234.184 31.039 230.815 27.4203 227.944C23.8015 225.137 22.6784 226.634 22.6784 226.634Z" fill="#97C1FF"/>
<path d="M24.4263 225.262C24.4263 225.262 26.3605 224.264 26.4852 221.019C26.5476 217.775 24.4887 215.279 24.4887 215.279C24.4887 215.279 24.7383 218.149 24.2391 219.46C23.74 220.77 22.6793 222.392 22.6793 222.392C22.6793 222.392 21.7434 221.331 19.934 220.645C18.1246 219.959 14.6306 219.023 14.6306 219.023C14.6306 219.023 17.2511 222.392 18.9357 223.203C20.6203 224.077 21.5562 225.262 21.5562 225.262C21.5562 225.262 19.5597 225.886 18.1246 225.574C16.6896 225.262 14.5059 225.137 14.5059 225.137C14.5059 225.137 15.8785 228.694 20.3708 227.82C24.863 226.947 24.4263 225.262 24.4263 225.262Z" fill="#97C1FF"/>
<path d="M31.4761 233.498C31.4761 233.498 29.6667 233.186 27.9821 235.307C26.2975 237.429 26.4847 240.174 26.4847 240.174C26.4847 240.174 27.7326 238.115 28.7308 237.491C29.7291 236.867 31.2265 236.306 31.2265 236.306C31.2265 236.306 31.3513 237.491 32.2248 238.864C33.0983 240.236 34.9701 242.607 34.9701 242.607C34.9701 242.607 34.8453 239.051 34.159 237.616C33.4727 236.243 33.4727 234.933 33.4727 234.933C33.4727 234.933 35.0949 235.494 35.906 236.43C36.7171 237.366 38.1521 238.552 38.1521 238.552C38.1521 238.552 39.0256 235.432 35.5316 233.81C32.1 232.063 31.4761 233.498 31.4761 233.498Z" fill="#97C1FF"/>
<path d="M38.1513 238.489C38.1513 238.489 37.5898 240.236 39.4616 242.17C41.3334 244.104 44.0162 244.354 44.0162 244.354C44.0162 244.354 42.1445 242.794 41.6453 241.796C41.1462 240.735 40.7718 239.175 40.7718 239.175C40.7718 239.175 41.9573 239.238 43.3923 238.551C44.8897 237.865 47.5102 236.367 47.5102 236.367C47.5102 236.367 43.9538 235.993 42.4564 236.43C40.959 236.929 39.7111 236.742 39.7111 236.742C39.7111 236.742 40.5223 235.182 41.5205 234.558C42.5812 233.872 43.8915 232.624 43.8915 232.624C43.8915 232.624 40.959 231.376 38.8377 234.558C36.7787 237.678 38.1513 238.489 38.1513 238.489Z" fill="#97C1FF"/>
<path d="M35.7194 237.678C35.7194 237.678 33.7229 236.867 31.1648 238.926C28.6067 240.985 28.1699 244.229 28.1699 244.229C28.1699 244.229 30.1665 242.108 31.4767 241.671C32.787 241.172 34.7211 240.86 34.7211 240.86C34.7211 240.86 34.534 242.233 35.2827 244.105C35.969 245.914 37.5288 249.158 37.5288 249.158C37.5288 249.158 38.3399 244.978 37.8408 243.169C37.404 241.359 37.716 239.862 37.716 239.862C37.716 239.862 39.463 240.923 40.2117 242.233C40.9604 243.543 42.2707 245.228 42.2707 245.228C42.2707 245.228 44.08 241.858 40.4613 238.988C36.8425 236.181 35.7194 237.678 35.7194 237.678Z" fill="#97C1FF"/>
<path d="M37.7154 238.864C37.7154 238.864 39.6495 237.865 39.7743 234.621C39.8367 231.377 37.7777 228.881 37.7777 228.881C37.7777 228.881 38.0273 231.751 37.5282 233.061C37.029 234.371 35.9684 235.994 35.9684 235.994C35.9684 235.994 35.0325 234.933 33.2231 234.247C31.4137 233.56 27.9197 232.624 27.9197 232.624C27.9197 232.624 30.5402 235.994 32.2248 236.805C33.9094 237.678 34.8453 238.864 34.8453 238.864C34.8453 238.864 32.8487 239.488 31.4137 239.176C29.9787 238.864 27.7949 238.739 27.7949 238.739C27.7949 238.739 29.1676 242.42 33.6598 241.422C39.2752 240.299 37.9649 238.739 37.7154 238.864Z" fill="#97C1FF"/>
<path d="M24.8001 237.616C24.8001 237.616 24.4258 238.864 25.736 240.237C27.0463 241.609 28.9804 241.796 28.9804 241.796C28.9804 241.796 27.6702 240.736 27.3582 239.987C27.0463 239.238 26.7343 238.115 26.7343 238.115C26.7343 238.115 27.5454 238.178 28.6061 237.679C29.6668 237.179 31.4762 236.119 31.4762 236.119C31.4762 236.119 28.9804 235.869 27.9198 236.181C26.8591 236.493 25.9856 236.431 25.9856 236.431C25.9856 236.431 26.5471 235.37 27.2958 234.871C28.0446 234.372 28.9804 233.498 28.9804 233.498C28.9804 233.498 26.9215 232.625 25.4241 234.871C23.9266 237.055 24.8001 237.616 24.8001 237.616Z" fill="#97C1FF"/>
<path d="M23.3659 238.863C23.3659 238.863 21.9308 238.302 20.1838 239.737C18.4369 241.234 18.0625 243.481 18.0625 243.481C18.0625 243.481 19.4351 241.983 20.371 241.671C21.3069 241.359 22.6172 241.11 22.6172 241.11C22.6172 241.11 22.4924 242.108 22.9915 243.356C23.4907 244.604 24.6137 246.912 24.6137 246.912C24.6137 246.912 25.1753 243.98 24.8633 242.669C24.5513 241.422 24.7385 240.298 24.7385 240.298C24.7385 240.298 25.9864 241.047 26.4855 241.983C26.9846 242.919 27.9205 244.104 27.9205 244.104C27.9205 244.104 29.1684 241.734 26.6103 239.737C24.1146 237.803 23.3659 238.863 23.3659 238.863Z" fill="#97C1FF"/>
<path d="M24.5504 237.865C24.5504 237.865 25.923 237.179 25.9854 234.87C26.0478 232.561 24.5504 230.814 24.5504 230.814C24.5504 230.814 24.7375 232.873 24.3632 233.747C23.9888 234.62 23.3025 235.806 23.3025 235.806C23.3025 235.806 22.6162 235.057 21.3683 234.62C20.0581 234.184 17.6248 233.497 17.6248 233.497C17.6248 233.497 19.4966 235.868 20.682 236.43C21.8675 237.054 22.4914 237.927 22.4914 237.927C22.4914 237.927 21.1188 238.364 20.0581 238.114C19.0598 237.865 17.5 237.802 17.5 237.802C17.5 237.802 18.4983 240.298 21.6179 239.737C24.8623 239.175 24.5504 237.865 24.5504 237.865Z" fill="#97C1FF"/>
<path d="M36.7804 161.185C36.7804 161.185 36.406 162.432 37.7163 163.805C39.0265 165.178 40.9607 165.365 40.9607 165.365C40.9607 165.365 39.6505 164.304 39.3385 163.555C39.0265 162.807 38.7146 161.684 38.7146 161.684C38.7146 161.684 39.5257 161.746 40.5863 161.247C41.647 160.748 43.4564 159.687 43.4564 159.687C43.4564 159.687 40.9607 159.438 39.9 159.749C38.8394 160.061 37.9659 159.999 37.9659 159.999C37.9659 159.999 38.5274 158.938 39.2761 158.439C40.0248 157.94 40.9607 157.067 40.9607 157.067C40.9607 157.067 38.9017 156.193 37.4043 158.439C35.8445 160.623 36.7804 161.185 36.7804 161.185Z" fill="#97C1FF"/>
<path d="M35.2819 162.433C35.2819 162.433 33.8469 161.871 32.0999 163.306C30.3529 164.804 29.9785 167.05 29.9785 167.05C29.9785 167.05 31.3512 165.552 32.287 165.24C33.2229 164.928 34.5332 164.679 34.5332 164.679C34.5332 164.679 34.4084 165.677 34.9075 166.925C35.4067 168.173 36.5297 170.481 36.5297 170.481C36.5297 170.481 37.0913 167.549 36.7793 166.239C36.4674 164.991 36.6545 163.868 36.6545 163.868C36.6545 163.868 37.9024 164.617 38.4015 165.552C38.9007 166.488 39.8366 167.674 39.8366 167.674C39.8366 167.674 41.0844 165.303 38.5263 163.306C36.0306 161.372 35.2819 162.433 35.2819 162.433Z" fill="#97C1FF"/>
<path d="M36.5308 161.434C36.5308 161.434 37.9035 160.748 37.9659 158.439C38.0283 156.131 36.5308 154.384 36.5308 154.384C36.5308 154.384 36.718 156.443 36.3437 157.316C35.9693 158.19 35.283 159.375 35.283 159.375C35.283 159.375 34.5967 158.626 33.3488 158.19C32.0386 157.753 29.6053 157.067 29.6053 157.067C29.6053 157.067 31.477 159.438 32.6625 159.999C33.848 160.561 34.4719 161.497 34.4719 161.497C34.4719 161.497 33.0992 161.933 32.0386 161.684C31.0403 161.434 29.4805 161.372 29.4805 161.372C29.4805 161.372 30.4788 163.867 33.5984 163.306C36.7804 162.682 36.5308 161.434 36.5308 161.434Z" fill="#97C1FF"/>
<path d="M46.8253 193.629C46.8253 193.629 46.451 194.877 47.7612 196.249C49.0715 197.622 51.0056 197.809 51.0056 197.809C51.0056 197.809 49.6954 196.748 49.3834 196C49.0715 195.251 48.7595 194.128 48.7595 194.128C48.7595 194.128 49.5706 194.19 50.6313 193.691C51.6919 193.192 53.5013 192.131 53.5013 192.131C53.5013 192.131 51.0056 191.882 49.945 192.194C48.8843 192.506 48.0108 192.443 48.0108 192.443C48.0108 192.443 48.5723 191.383 49.321 190.884C50.0697 190.384 51.0056 189.511 51.0056 189.511C51.0056 189.511 48.9467 188.637 47.4492 190.884C45.8894 193.067 46.8253 193.629 46.8253 193.629Z" fill="#97C1FF"/>
<path d="M45.3288 194.877C45.3288 194.877 43.8937 194.316 42.1467 195.751C40.3997 197.248 40.0254 199.494 40.0254 199.494C40.0254 199.494 41.398 197.997 42.3339 197.685C43.2698 197.373 44.5801 197.123 44.5801 197.123C44.5801 197.123 44.4553 198.122 44.9544 199.369C45.4536 200.617 46.5766 202.926 46.5766 202.926C46.5766 202.926 47.1382 199.993 46.8262 198.683C46.5142 197.435 46.7014 196.312 46.7014 196.312C46.7014 196.312 47.9493 197.061 48.4484 197.997C48.9475 198.933 49.8834 200.118 49.8834 200.118C49.8834 200.118 51.1313 197.747 48.5732 195.751C46.0775 193.816 45.3288 194.877 45.3288 194.877Z" fill="#97C1FF"/>
<path d="M46.5133 193.878C46.5133 193.878 47.8859 193.192 47.9483 190.884C48.0107 188.575 46.5133 186.828 46.5133 186.828C46.5133 186.828 46.7004 188.887 46.3261 189.761C45.9517 190.634 45.2654 191.82 45.2654 191.82C45.2654 191.82 44.5791 191.071 43.3312 190.634C42.021 190.197 39.5877 189.511 39.5877 189.511C39.5877 189.511 41.4595 191.882 42.6449 192.443C43.8304 193.067 44.4543 193.941 44.4543 193.941C44.4543 193.941 43.0817 194.378 42.021 194.128C41.0227 193.878 39.4629 193.816 39.4629 193.816C39.4629 193.816 40.4612 196.312 43.5808 195.75C46.8252 195.126 46.5133 193.878 46.5133 193.878Z" fill="#97C1FF"/>
<path d="M30.7285 145.96V170.168H99.922V145.96H30.7285ZM96.7399 167.922H33.9105V148.206H96.7399V167.922Z" fill="white" stroke="#263238" stroke-miterlimit="10" stroke-linecap="round" stroke-linejoin="round"/>
<path d="M36.7812 142.029V145.898H39.5889V148.643H36.7812V151.95H46.4521V142.029H36.7812Z" fill="#263238" stroke="#263238" stroke-miterlimit="10" stroke-linecap="round" stroke-linejoin="round"/>
<path d="M42.8952 161.184H34.2227V161.995H42.8952V161.184Z" fill="white" stroke="#263238" stroke-miterlimit="10" stroke-linecap="round" stroke-linejoin="round"/>
<path d="M41.148 158.189H35.2207V164.741H41.148V158.189Z" fill="#263238" stroke="#263238" stroke-miterlimit="10" stroke-linecap="round" stroke-linejoin="round"/>
<path d="M59.6153 159.749H42.6445V176.782H59.6153V159.749Z" fill="#263238" stroke="#263238" stroke-miterlimit="10" stroke-linecap="round" stroke-linejoin="round"/>
<path d="M60.7402 163.929V167.797H63.5479V170.542H60.7402V173.849H70.4111V163.929H60.7402Z" fill="#263238" stroke="#263238" stroke-miterlimit="10" stroke-linecap="round" stroke-linejoin="round"/>
<path d="M31.041 179.714V190.009L61.6134 194.626H70.0364L104.165 190.009V179.714H31.041Z" fill="white" stroke="#263238" stroke-miterlimit="10" stroke-linecap="round" stroke-linejoin="round"/>
<path d="M69.9739 194.626H61.6133V248.845H69.9739V194.626Z" fill="white" stroke="#263238" stroke-miterlimit="10" stroke-linecap="round" stroke-linejoin="round"/>
<path d="M67.9147 194.626H63.7344V248.845H67.9147V194.626Z" fill="#263238" stroke="#263238" stroke-miterlimit="10" stroke-linecap="round" stroke-linejoin="round"/>
<path d="M104.164 179.652V153.946H102.605L100.92 179.652H104.164Z" fill="white" stroke="#263238" stroke-miterlimit="10" stroke-linecap="round" stroke-linejoin="round"/>
<path d="M102.168 156.566H99.9219V157.502H102.168V156.566Z" fill="white" stroke="#263238" stroke-miterlimit="10" stroke-linecap="round" stroke-linejoin="round"/>
<g opacity="0.3">
<path opacity="0.3" d="M35.7214 94.2993C51.1588 94.2993 63.6733 81.7848 63.6733 66.3474C63.6733 50.91 51.1588 38.3955 35.7214 38.3955C20.284 38.3955 7.76953 50.91 7.76953 66.3474C7.76953 81.7848 20.284 94.2993 35.7214 94.2993Z" stroke="black" stroke-miterlimit="10" stroke-linecap="round" stroke-linejoin="round"/>
<path opacity="0.3" d="M35.7211 89.9315C48.7465 89.9315 59.3056 79.3724 59.3056 66.3471C59.3056 53.3218 48.7465 42.7627 35.7211 42.7627C22.6958 42.7627 12.1367 53.3218 12.1367 66.3471C12.1367 79.3724 22.6958 89.9315 35.7211 89.9315Z" stroke="black" stroke-miterlimit="10" stroke-linecap="round" stroke-linejoin="round"/>
<path opacity="0.3" d="M24.9277 66.3473H35.7217L43.396 51.9346" stroke="black" stroke-miterlimit="10" stroke-linecap="round" stroke-linejoin="round"/>
</g>
<g opacity="0.3">
<path opacity="0.3" d="M272.687 249.282L264.015 125.059H255.217L246.545 249.282H272.687Z" fill="white" stroke="black" stroke-miterlimit="10" stroke-linecap="round" stroke-linejoin="round"/>
<g opacity="0.3">
<path opacity="0.3" d="M253.096 156.068C255.092 153.26 258.524 148.019 258.524 144.213C258.524 139.659 255.467 137.163 254.468 136.477L253.096 156.068Z" fill="black" stroke="black" stroke-miterlimit="10" stroke-linecap="round" stroke-linejoin="round"/>
<path opacity="0.3" d="M255.341 205.233C254.842 197.933 252.596 192.131 250.786 188.637L248.166 226.197C250.662 223.015 256.027 214.966 255.341 205.233Z" fill="black" stroke="black" stroke-miterlimit="10" stroke-linecap="round" stroke-linejoin="round"/>
<path opacity="0.3" d="M266.135 155.756C264.263 159.999 260.77 168.858 262.454 173.663C263.827 177.531 266.322 181.774 268.132 184.456L266.135 155.756Z" fill="black" stroke="black" stroke-miterlimit="10" stroke-linecap="round" stroke-linejoin="round"/>
<path opacity="0.3" d="M269.878 209.538C267.944 214.03 262.641 226.946 262.641 235.306C262.641 241.608 265.823 246.475 268.256 249.282H272.686L269.878 209.538Z" fill="black" stroke="black" stroke-miterlimit="10" stroke-linecap="round" stroke-linejoin="round"/>
</g>
<g opacity="0.3">
<path opacity="0.3" d="M252.784 91.7398C252.784 91.7398 247.917 90.5543 244.86 91.1158C241.803 91.7398 237.747 93.5491 235.314 97.6047C232.881 101.66 229.449 110.146 230.634 111.206C231.82 112.267 234.253 108.399 234.253 108.399C234.253 108.399 240.555 106.402 243.55 102.908C246.607 99.4764 251.037 93.9859 251.037 93.9859L252.784 91.7398Z" fill="white" stroke="black" stroke-miterlimit="10" stroke-linecap="round" stroke-linejoin="round"/>
<path opacity="0.3" d="M250.351 92.5508C250.351 92.5508 244.673 94.3602 241.242 97.4174C237.81 100.475 236.375 104.53 236.375 104.53C236.375 104.53 240.805 102.284 243.862 99.4764C246.919 96.6063 250.351 92.5508 250.351 92.5508Z" fill="white" stroke="black" stroke-miterlimit="10" stroke-linecap="round" stroke-linejoin="round"/>
</g>
<path opacity="0.3" d="M254.594 90.6801L250.351 80.9469C250.351 80.9469 251.786 78.3264 249.353 77.5153C246.92 76.7042 246.296 79.1375 246.732 80.1358C247.107 81.1341 248.168 81.758 248.168 81.758L250.414 92.4895L254.594 90.6801Z" fill="white" stroke="black" stroke-miterlimit="10" stroke-linecap="round" stroke-linejoin="round"/>
<g opacity="0.3">
<path opacity="0.3" d="M265.574 91.7398C265.574 91.7398 270.441 90.5543 273.498 91.1158C276.555 91.7398 280.611 93.5491 283.044 97.6047C285.477 101.66 288.909 110.146 287.724 111.206C286.538 112.267 284.105 108.399 284.105 108.399C284.105 108.399 277.803 106.402 274.808 102.908C271.751 99.4764 267.321 93.9859 267.321 93.9859L265.574 91.7398Z" fill="white" stroke="black" stroke-miterlimit="10" stroke-linecap="round" stroke-linejoin="round"/>
<path opacity="0.3" d="M268.008 92.5508C268.008 92.5508 273.686 94.3602 277.117 97.4174C280.549 100.475 281.984 104.53 281.984 104.53C281.984 104.53 277.554 102.284 274.497 99.4764C271.439 96.6063 268.008 92.5508 268.008 92.5508Z" fill="white" stroke="black" stroke-miterlimit="10" stroke-linecap="round" stroke-linejoin="round"/>
</g>
<path opacity="0.3" d="M263.766 90.6801L268.008 80.9469C268.008 80.9469 266.573 78.3264 269.007 77.5153C271.44 76.7042 272.064 79.1375 271.627 80.1358C271.253 81.1341 270.192 81.758 270.192 81.758L267.946 92.4895L263.766 90.6801Z" fill="white" stroke="black" stroke-miterlimit="10" stroke-linecap="round" stroke-linejoin="round"/>
<path opacity="0.3" d="M272.064 99.5396C270.566 93.6123 265.388 89.3696 259.336 89.12C259.211 89.12 259.148 89.12 259.024 89.12C253.97 88.9952 250.913 90.9294 249.103 92.8635C247.793 94.361 246.919 96.1704 246.545 98.1045L243.238 115.325H276.057L272.064 99.5396Z" fill="white" stroke="black" stroke-miterlimit="10" stroke-linecap="round" stroke-linejoin="round"/>
<path opacity="0.3" d="M259.647 132.171C270.708 132.171 279.675 126.947 279.675 120.503C279.675 114.06 270.708 108.836 259.647 108.836C248.586 108.836 239.619 114.06 239.619 120.503C239.619 126.947 248.586 132.171 259.647 132.171Z" fill="white" stroke="black" stroke-miterlimit="10" stroke-linecap="round" stroke-linejoin="round"/>
<path opacity="0.3" d="M252.16 102.847C252.987 102.847 253.657 101.981 253.657 100.913C253.657 99.8445 252.987 98.9785 252.16 98.9785C251.333 98.9785 250.662 99.8445 250.662 100.913C250.662 101.981 251.333 102.847 252.16 102.847Z" fill="black" stroke="black" stroke-miterlimit="10" stroke-linecap="round" stroke-linejoin="round"/>
<path opacity="0.3" d="M265.949 102.847C266.776 102.847 267.446 101.981 267.446 100.913C267.446 99.8445 266.776 98.9785 265.949 98.9785C265.122 98.9785 264.451 99.8445 264.451 100.913C264.451 101.981 265.122 102.847 265.949 102.847Z" fill="black" stroke="black" stroke-miterlimit="10" stroke-linecap="round" stroke-linejoin="round"/>
<path opacity="0.3" d="M251.037 122.501C252.932 122.501 254.469 121.328 254.469 119.88C254.469 118.433 252.932 117.26 251.037 117.26C249.142 117.26 247.605 118.433 247.605 119.88C247.605 121.328 249.142 122.501 251.037 122.501Z" fill="white" stroke="black" stroke-miterlimit="10" stroke-linecap="round" stroke-linejoin="round"/>
<path opacity="0.3" d="M267.01 122.501C268.905 122.501 270.441 121.328 270.441 119.88C270.441 118.433 268.905 117.26 267.01 117.26C265.115 117.26 263.578 118.433 263.578 119.88C263.578 121.328 265.115 122.501 267.01 122.501Z" fill="white" stroke="black" stroke-miterlimit="10" stroke-linecap="round" stroke-linejoin="round"/>
<path opacity="0.3" d="M259.335 89.1203C259.335 89.1203 259.709 85.8135 257.276 84.0041C254.843 82.1947 253.22 83.6297 254.032 84.628C254.843 85.6263 256.028 87.0613 256.028 87.0613C256.028 87.0613 251.598 86.063 251.349 87.8724C251.161 89.6818 256.402 90.1186 256.402 90.1186C256.402 90.1186 259.148 91.8656 259.335 89.1203Z" fill="white" stroke="black" stroke-miterlimit="10" stroke-linecap="round" stroke-linejoin="round"/>
</g>
<g opacity="0.3">
<path opacity="0.3" d="M297.769 83.1299H290.531V249.281H297.769V83.1299Z" fill="white" stroke="black" stroke-miterlimit="10" stroke-linecap="round" stroke-linejoin="round"/>
<g opacity="0.3">
<path opacity="0.3" d="M297.831 86.3115H293.963" stroke="black" stroke-miterlimit="10" stroke-linecap="round" stroke-linejoin="round"/>
<path opacity="0.3" d="M297.832 90.4922H295.586" stroke="black" stroke-miterlimit="10" stroke-linecap="round" stroke-linejoin="round"/>
</g>
<g opacity="0.3">
<path opacity="0.3" d="M297.831 94.8594H293.963" stroke="black" stroke-miterlimit="10" stroke-linecap="round" stroke-linejoin="round"/>
<path opacity="0.3" d="M297.832 98.9775H295.586" stroke="black" stroke-miterlimit="10" stroke-linecap="round" stroke-linejoin="round"/>
</g>
<g opacity="0.3">
<path opacity="0.3" d="M297.831 103.345H293.963" stroke="black" stroke-miterlimit="10" stroke-linecap="round" stroke-linejoin="round"/>
<path opacity="0.3" d="M297.832 107.525H295.586" stroke="black" stroke-miterlimit="10" stroke-linecap="round" stroke-linejoin="round"/>
</g>
<g opacity="0.3">
<path opacity="0.3" d="M297.831 111.893H293.963" stroke="black" stroke-miterlimit="10" stroke-linecap="round" stroke-linejoin="round"/>
<path opacity="0.3" d="M297.832 116.011H295.586" stroke="black" stroke-miterlimit="10" stroke-linecap="round" stroke-linejoin="round"/>
</g>
<g opacity="0.3">
<path opacity="0.3" d="M297.831 120.439H293.963" stroke="black" stroke-miterlimit="10" stroke-linecap="round" stroke-linejoin="round"/>
<path opacity="0.3" d="M297.832 124.558H295.586" stroke="black" stroke-miterlimit="10" stroke-linecap="round" stroke-linejoin="round"/>
</g>
<g opacity="0.3">
<path opacity="0.3" d="M297.831 128.926H293.963" stroke="black" stroke-miterlimit="10" stroke-linecap="round" stroke-linejoin="round"/>
<path opacity="0.3" d="M297.832 133.106H295.586" stroke="black" stroke-miterlimit="10" stroke-linecap="round" stroke-linejoin="round"/>
</g>
<g opacity="0.3">
<path opacity="0.3" d="M297.831 137.474H293.963" stroke="black" stroke-miterlimit="10" stroke-linecap="round" stroke-linejoin="round"/>
<path opacity="0.3" d="M297.832 141.592H295.586" stroke="black" stroke-miterlimit="10" stroke-linecap="round" stroke-linejoin="round"/>
</g>
<g opacity="0.3">
<path opacity="0.3" d="M297.831 145.959H293.963" stroke="black" stroke-miterlimit="10" stroke-linecap="round" stroke-linejoin="round"/>
<path opacity="0.3" d="M297.832 150.14H295.586" stroke="black" stroke-miterlimit="10" stroke-linecap="round" stroke-linejoin="round"/>
</g>
<g opacity="0.3">
<path opacity="0.3" d="M297.831 154.507H293.963" stroke="black" stroke-miterlimit="10" stroke-linecap="round" stroke-linejoin="round"/>
<path opacity="0.3" d="M297.832 158.688H295.586" stroke="black" stroke-miterlimit="10" stroke-linecap="round" stroke-linejoin="round"/>
</g>
<g opacity="0.3">
<path opacity="0.3" d="M297.831 163.055H293.963" stroke="black" stroke-miterlimit="10" stroke-linecap="round" stroke-linejoin="round"/>
<path opacity="0.3" d="M297.832 167.173H295.586" stroke="black" stroke-miterlimit="10" stroke-linecap="round" stroke-linejoin="round"/>
</g>
<g opacity="0.3">
<path opacity="0.3" d="M297.831 171.54H293.963" stroke="black" stroke-miterlimit="10" stroke-linecap="round" stroke-linejoin="round"/>
<path opacity="0.3" d="M297.832 175.721H295.586" stroke="black" stroke-miterlimit="10" stroke-linecap="round" stroke-linejoin="round"/>
</g>
<g opacity="0.3">
<path opacity="0.3" d="M297.831 180.088H293.963" stroke="black" stroke-miterlimit="10" stroke-linecap="round" stroke-linejoin="round"/>
<path opacity="0.3" d="M297.832 184.206H295.586" stroke="black" stroke-miterlimit="10" stroke-linecap="round" stroke-linejoin="round"/>
</g>
<g opacity="0.3">
<path opacity="0.3" d="M297.831 188.573H293.963" stroke="black" stroke-miterlimit="10" stroke-linecap="round" stroke-linejoin="round"/>
<path opacity="0.3" d="M297.832 192.754H295.586" stroke="black" stroke-miterlimit="10" stroke-linecap="round" stroke-linejoin="round"/>
</g>
<g opacity="0.3">
<path opacity="0.3" d="M297.831 197.121H293.963" stroke="black" stroke-miterlimit="10" stroke-linecap="round" stroke-linejoin="round"/>
<path opacity="0.3" d="M297.832 201.301H295.586" stroke="black" stroke-miterlimit="10" stroke-linecap="round" stroke-linejoin="round"/>
</g>
<g opacity="0.3">
<path opacity="0.3" d="M297.831 205.669H293.963" stroke="black" stroke-miterlimit="10" stroke-linecap="round" stroke-linejoin="round"/>
<path opacity="0.3" d="M297.832 209.787H295.586" stroke="black" stroke-miterlimit="10" stroke-linecap="round" stroke-linejoin="round"/>
</g>
<g opacity="0.3">
<path opacity="0.3" d="M297.831 214.154H293.963" stroke="black" stroke-miterlimit="10" stroke-linecap="round" stroke-linejoin="round"/>
<path opacity="0.3" d="M297.832 218.334H295.586" stroke="black" stroke-miterlimit="10" stroke-linecap="round" stroke-linejoin="round"/>
</g>
<g opacity="0.3">
<path opacity="0.3" d="M297.831 222.702H293.963" stroke="black" stroke-miterlimit="10" stroke-linecap="round" stroke-linejoin="round"/>
<path opacity="0.3" d="M297.832 226.82H295.586" stroke="black" stroke-miterlimit="10" stroke-linecap="round" stroke-linejoin="round"/>
</g>
<g opacity="0.3">
<path opacity="0.3" d="M297.831 231.25H293.963" stroke="black" stroke-miterlimit="10" stroke-linecap="round" stroke-linejoin="round"/>
<path opacity="0.3" d="M297.832 235.368H295.586" stroke="black" stroke-miterlimit="10" stroke-linecap="round" stroke-linejoin="round"/>
</g>
<g opacity="0.3">
<path opacity="0.3" d="M297.831 239.735H293.963" stroke="black" stroke-miterlimit="10" stroke-linecap="round" stroke-linejoin="round"/>
<path opacity="0.3" d="M297.832 243.916H295.586" stroke="black" stroke-miterlimit="10" stroke-linecap="round" stroke-linejoin="round"/>
</g>
</g>
<g opacity="0.3">
<g opacity="0.3">
<g opacity="0.3">
<g opacity="0.3">
<path d="M59.15 195.383L52.0996 202.433H130.902V196.007" fill="white"/>
<path d="M59.15 195.383L52.0996 202.433H130.902V196.007" stroke="black" stroke-miterlimit="10" stroke-linecap="round" stroke-linejoin="round"/>
</g>
<g opacity="0.3">
<path d="M59.15 187.209L52.0996 194.259H130.902V187.895" fill="white"/>
<path d="M59.15 187.209L52.0996 194.259H130.902V187.895" stroke="black" stroke-miterlimit="10" stroke-linecap="round" stroke-linejoin="round"/>
</g>
<g opacity="0.3">
<path d="M59.15 179.098L52.0996 186.148H130.902V179.722" fill="white"/>
<path d="M59.15 179.098L52.0996 186.148H130.902V179.722" stroke="black" stroke-miterlimit="10" stroke-linecap="round" stroke-linejoin="round"/>
</g>
<g opacity="0.3">
<path d="M59.15 170.925L52.0996 177.975H130.902V171.549" fill="white"/>
<path d="M59.15 170.925L52.0996 177.975H130.902V171.549" stroke="black" stroke-miterlimit="10" stroke-linecap="round" stroke-linejoin="round"/>
</g>
<g opacity="0.3">
<path d="M59.15 162.751L52.0996 169.801H130.902V163.437" fill="white"/>
<path d="M59.15 162.751L52.0996 169.801H130.902V163.437" stroke="black" stroke-miterlimit="10" stroke-linecap="round" stroke-linejoin="round"/>
</g>
<g opacity="0.3">
<path d="M59.15 154.64L52.0996 161.628H130.902V155.264" fill="white"/>
<path d="M59.15 154.64L52.0996 161.628H130.902V155.264" stroke="black" stroke-miterlimit="10" stroke-linecap="round" stroke-linejoin="round"/>
</g>
<g opacity="0.3">
<path d="M59.15 146.466L52.0996 153.516H130.902V147.09" fill="white"/>
<path d="M59.15 146.466L52.0996 153.516H130.902V147.09" stroke="black" stroke-miterlimit="10" stroke-linecap="round" stroke-linejoin="round"/>
</g>
<g opacity="0.3">
<path d="M59.15 138.293L52.0996 145.343H130.902V138.917" fill="white"/>
<path d="M59.15 138.293L52.0996 145.343H130.902V138.917" stroke="black" stroke-miterlimit="10" stroke-linecap="round" stroke-linejoin="round"/>
</g>
<g opacity="0.3">
<path d="M59.15 130.119L52.0996 137.17H130.902V130.805" fill="white"/>
<path d="M59.15 130.119L52.0996 137.17H130.902V130.805" stroke="black" stroke-miterlimit="10" stroke-linecap="round" stroke-linejoin="round"/>
</g>
<g opacity="0.3">
<path d="M59.15 122.009L52.0996 129.059H130.902V122.633" fill="white"/>
<path d="M59.15 122.009L52.0996 129.059H130.902V122.633" stroke="black" stroke-miterlimit="10" stroke-linecap="round" stroke-linejoin="round"/>
</g>
<g opacity="0.3">
<path d="M59.15 113.835L52.0996 120.885H130.902V114.459" fill="white"/>
<path d="M59.15 113.835L52.0996 120.885H130.902V114.459" stroke="black" stroke-miterlimit="10" stroke-linecap="round" stroke-linejoin="round"/>
</g>
<g opacity="0.3">
<path d="M59.15 105.661L52.0996 112.712H130.902V106.285" fill="white"/>
<path d="M59.15 105.661L52.0996 112.712H130.902V106.285" stroke="black" stroke-miterlimit="10" stroke-linecap="round" stroke-linejoin="round"/>
</g>
<g opacity="0.3">
<path d="M59.15 97.4883L52.0996 104.539H130.902V98.1746" fill="white"/>
<path d="M59.15 97.4883L52.0996 104.539H130.902V98.1746" stroke="black" stroke-miterlimit="10" stroke-linecap="round" stroke-linejoin="round"/>
</g>
<g opacity="0.3">
<path d="M59.15 89.377L52.0996 96.4273H130.902V90.0009" fill="white"/>
<path d="M59.15 89.377L52.0996 96.4273H130.902V90.0009" stroke="black" stroke-miterlimit="10" stroke-linecap="round" stroke-linejoin="round"/>
</g>
<g opacity="0.3">
<path d="M59.15 81.2041L52.0996 88.2545H130.902V81.828" fill="white"/>
<path d="M59.15 81.2041L52.0996 88.2545H130.902V81.828" stroke="black" stroke-miterlimit="10" stroke-linecap="round" stroke-linejoin="round"/>
</g>
<g opacity="0.3">
<path d="M59.15 73.0303L52.0996 80.0806H130.902V73.7166" fill="white"/>
<path d="M59.15 73.0303L52.0996 80.0806H130.902V73.7166" stroke="black" stroke-miterlimit="10" stroke-linecap="round" stroke-linejoin="round"/>
</g>
<g opacity="0.3">
<path d="M59.15 64.9199L52.0996 71.9703H130.902V65.5438" fill="white"/>
<path d="M59.15 64.9199L52.0996 71.9703H130.902V65.5438" stroke="black" stroke-miterlimit="10" stroke-linecap="round" stroke-linejoin="round"/>
</g>
<g opacity="0.3">
<path d="M59.15 56.7461L52.0996 63.7965H130.902V57.37" fill="white"/>
<path d="M59.15 56.7461L52.0996 63.7965H130.902V57.37" stroke="black" stroke-miterlimit="10" stroke-linecap="round" stroke-linejoin="round"/>
</g>
<g opacity="0.3">
<path d="M59.15 48.5723L52.0996 55.6226H130.902V49.1962" fill="white"/>
<path d="M59.15 48.5723L52.0996 55.6226H130.902V49.1962" stroke="black" stroke-miterlimit="10" stroke-linecap="round" stroke-linejoin="round"/>
</g>
</g>
<g opacity="0.3">
<g opacity="0.3">
<path d="M138.388 195.383L131.338 202.433H210.14V196.007" fill="white"/>
<path d="M138.388 195.383L131.338 202.433H210.14V196.007" stroke="black" stroke-miterlimit="10" stroke-linecap="round" stroke-linejoin="round"/>
</g>
<g opacity="0.3">
<path d="M138.388 187.209L131.338 194.259H210.14V187.895" fill="white"/>
<path d="M138.388 187.209L131.338 194.259H210.14V187.895" stroke="black" stroke-miterlimit="10" stroke-linecap="round" stroke-linejoin="round"/>
</g>
<g opacity="0.3">
<path d="M138.388 179.098L131.338 186.148H210.14V179.722" fill="white"/>
<path d="M138.388 179.098L131.338 186.148H210.14V179.722" stroke="black" stroke-miterlimit="10" stroke-linecap="round" stroke-linejoin="round"/>
</g>
<g opacity="0.3">
<path d="M138.388 170.925L131.338 177.975H210.14V171.549" fill="white"/>
<path d="M138.388 170.925L131.338 177.975H210.14V171.549" stroke="black" stroke-miterlimit="10" stroke-linecap="round" stroke-linejoin="round"/>
</g>
<g opacity="0.3">
<path d="M138.388 162.751L131.338 169.801H210.14V163.437" fill="white"/>
<path d="M138.388 162.751L131.338 169.801H210.14V163.437" stroke="black" stroke-miterlimit="10" stroke-linecap="round" stroke-linejoin="round"/>
</g>
<g opacity="0.3">
<path d="M138.388 154.64L131.338 161.628H210.14V155.264" fill="white"/>
<path d="M138.388 154.64L131.338 161.628H210.14V155.264" stroke="black" stroke-miterlimit="10" stroke-linecap="round" stroke-linejoin="round"/>
</g>
<g opacity="0.3">
<path d="M138.388 146.466L131.338 153.516H210.14V147.09" fill="white"/>
<path d="M138.388 146.466L131.338 153.516H210.14V147.09" stroke="black" stroke-miterlimit="10" stroke-linecap="round" stroke-linejoin="round"/>
</g>
<g opacity="0.3">
<path d="M138.388 138.293L131.338 145.343H210.14V138.917" fill="white"/>
<path d="M138.388 138.293L131.338 145.343H210.14V138.917" stroke="black" stroke-miterlimit="10" stroke-linecap="round" stroke-linejoin="round"/>
</g>
<g opacity="0.3">
<path d="M138.388 130.119L131.338 137.17H210.14V130.805" fill="white"/>
<path d="M138.388 130.119L131.338 137.17H210.14V130.805" stroke="black" stroke-miterlimit="10" stroke-linecap="round" stroke-linejoin="round"/>
</g>
<g opacity="0.3">
<path d="M138.388 122.009L131.338 129.059H210.14V122.633" fill="white"/>
<path d="M138.388 122.009L131.338 129.059H210.14V122.633" stroke="black" stroke-miterlimit="10" stroke-linecap="round" stroke-linejoin="round"/>
</g>
<g opacity="0.3">
<path d="M138.388 113.835L131.338 120.885H210.14V114.459" fill="white"/>
<path d="M138.388 113.835L131.338 120.885H210.14V114.459" stroke="black" stroke-miterlimit="10" stroke-linecap="round" stroke-linejoin="round"/>
</g>
<g opacity="0.3">
<path d="M138.388 105.661L131.338 112.712H210.14V106.285" fill="white"/>
<path d="M138.388 105.661L131.338 112.712H210.14V106.285" stroke="black" stroke-miterlimit="10" stroke-linecap="round" stroke-linejoin="round"/>
</g>
<g opacity="0.3">
<path d="M138.388 97.4883L131.338 104.539H210.14V98.1746" fill="white"/>
<path d="M138.388 97.4883L131.338 104.539H210.14V98.1746" stroke="black" stroke-miterlimit="10" stroke-linecap="round" stroke-linejoin="round"/>
</g>
<g opacity="0.3">
<path d="M138.388 89.377L131.338 96.4273H210.14V90.0009" fill="white"/>
<path d="M138.388 89.377L131.338 96.4273H210.14V90.0009" stroke="black" stroke-miterlimit="10" stroke-linecap="round" stroke-linejoin="round"/>
</g>
<g opacity="0.3">
<path d="M138.388 81.2041L131.338 88.2545H210.14V81.828" fill="white"/>
<path d="M138.388 81.2041L131.338 88.2545H210.14V81.828" stroke="black" stroke-miterlimit="10" stroke-linecap="round" stroke-linejoin="round"/>
</g>
<g opacity="0.3">
<path d="M138.388 73.0303L131.338 80.0806H210.14V73.7166" fill="white"/>
<path d="M138.388 73.0303L131.338 80.0806H210.14V73.7166" stroke="black" stroke-miterlimit="10" stroke-linecap="round" stroke-linejoin="round"/>
</g>
<g opacity="0.3">
<path d="M138.388 64.9199L131.338 71.9703H210.14V65.5438" fill="white"/>
<path d="M138.388 64.9199L131.338 71.9703H210.14V65.5438" stroke="black" stroke-miterlimit="10" stroke-linecap="round" stroke-linejoin="round"/>
</g>
<g opacity="0.3">
<path d="M138.388 56.7461L131.338 63.7965H210.14V57.37" fill="white"/>
<path d="M138.388 56.7461L131.338 63.7965H210.14V57.37" stroke="black" stroke-miterlimit="10" stroke-linecap="round" stroke-linejoin="round"/>
</g>
<g opacity="0.3">
<path d="M138.388 48.5723L131.338 55.6226H210.14V49.1962" fill="white"/>
<path d="M138.388 48.5723L131.338 55.6226H210.14V49.1962" stroke="black" stroke-miterlimit="10" stroke-linecap="round" stroke-linejoin="round"/>
</g>
</g>
</g>
<path opacity="0.3" d="M62.7695 48.3223H207.333" stroke="black" stroke-miterlimit="10" stroke-linecap="round" stroke-linejoin="round"/>
</g>
<path d="M170.24 96.6703C170.24 96.6703 168.556 93.4258 166.871 88.4344C165.186 83.5054 164.438 84.1917 166.996 80.0738C169.554 75.9559 171.8 69.9038 173.672 71.2765C175.481 72.7115 175.481 72.7115 175.481 72.7115C175.481 72.7115 176.604 70.1534 177.727 68.1568C178.85 66.1603 185.339 62.6663 184.965 63.3526C184.528 64.0389 183.717 65.0372 183.717 65.0372C183.717 65.0372 190.518 63.4774 196.882 66.7218C203.246 69.9662 215.725 82.008 217.659 88.9336C219.655 95.8592 210.983 104.469 210.983 104.469C210.983 104.469 211.544 105.031 210.296 106.154C209.049 107.277 205.742 109.274 205.742 109.274L200.376 110.833L172.923 106.154L170.24 96.6703Z" fill="#263238" stroke="#263238" stroke-miterlimit="10" stroke-linecap="round" stroke-linejoin="round"/>
<path d="M175.606 123.25C175.606 123.25 149.276 129.177 148.714 130.862C148.153 132.547 138.669 180.214 138.669 180.214C138.669 180.214 135.425 182.897 135.425 183.459C135.425 184.02 135.55 185.019 135.425 185.58C135.3 186.142 118.579 194.627 115.646 195.625C112.651 196.624 107.598 198.184 107.598 198.184L108.159 211.036C108.159 211.036 117.081 211.348 126.378 209.477C135.737 207.667 147.716 204.672 147.716 204.672C147.716 204.672 135.674 234.371 134.302 249.221L221.714 249.096L211.544 202.613C211.544 202.613 230.074 143.777 229.762 140.782C229.45 137.787 207.239 128.741 202.871 126.806C198.504 124.81 194.261 124.123 194.261 124.123L175.606 123.25Z" fill="#97C1FF" stroke="#263238" stroke-miterlimit="10" stroke-linecap="round" stroke-linejoin="round"/>
<path d="M152.895 153.572C151.46 158.751 148.59 169.358 148.59 171.791C148.59 174.911 152.646 186.89 152.646 186.89L147.717 204.734" stroke="#263238" stroke-miterlimit="10" stroke-linecap="round" stroke-linejoin="round"/>
<path d="M154.331 148.082C154.331 148.082 153.769 150.141 153.582 150.89" stroke="#263238" stroke-miterlimit="10" stroke-linecap="round" stroke-linejoin="round"/>
<path d="M137.172 185.205C137.172 185.205 146.531 185.392 149.526 188.886" stroke="#263238" stroke-miterlimit="10" stroke-linecap="round" stroke-linejoin="round"/>
<path d="M143.785 183.584C143.785 183.584 148.215 184.707 150.212 186.891" stroke="#263238" stroke-miterlimit="10" stroke-linecap="round" stroke-linejoin="round"/>
<path d="M172.985 249.221L170.177 235.494L166.246 249.221H172.985Z" fill="#263238" stroke="#263238" stroke-miterlimit="10" stroke-linecap="round" stroke-linejoin="round"/>
<path d="M208.361 221.331L186.461 222.205L186.648 224.95L203.057 224.139" stroke="#263238" stroke-miterlimit="10" stroke-linecap="round" stroke-linejoin="round"/>
<path d="M144.222 217.525L157.387 220.52L156.513 223.078L143.785 219.834" stroke="#263238" stroke-miterlimit="10" stroke-linecap="round" stroke-linejoin="round"/>
<path d="M170.177 155.819C172.485 161.122 178.725 171.355 178.725 171.355C178.725 171.355 193.075 155.382 194.884 152.2C196.694 149.08 199.19 145.462 199.19 145.462L195.571 140.657L201.498 139.971C201.498 139.971 201.061 130.113 200.937 125.933C197.318 124.56 194.261 124.061 194.261 124.061L175.605 123.188C175.605 123.188 173.671 123.624 170.801 124.311C169.99 125.558 168.991 127.243 168.18 128.865C166.558 132.172 165.373 134.668 165.373 134.668L170.489 136.976L165.186 142.779C165.248 142.779 167.868 150.515 170.177 155.819Z" fill="#97C1FF" stroke="#263238" stroke-miterlimit="10" stroke-linecap="round" stroke-linejoin="round"/>
<path d="M176.48 115.887C176.48 115.887 175.045 124.435 174.171 128.241C173.298 132.047 173.672 149.953 176.417 157.253C177.54 160.248 177.977 165.614 177.977 165.614C177.977 165.614 189.021 149.766 192.577 140.158C196.133 130.549 196.944 127.679 196.944 127.679L199.378 115.513C199.378 115.513 193.887 119.631 189.021 121.003C184.216 122.376 176.48 115.887 176.48 115.887Z" fill="white" stroke="#263238" stroke-miterlimit="10" stroke-linecap="round" stroke-linejoin="round"/>
<path d="M188.209 124.247L196.944 127.617L200.188 113.079L188.209 124.247Z" fill="#263238" stroke="#263238" stroke-miterlimit="10" stroke-linecap="round" stroke-linejoin="round"/>
<path d="M179.286 84.0674C179.286 84.0674 179.972 88.3101 181.532 89.7451C183.092 91.1801 184.339 91.8665 184.339 91.4297C184.339 90.993 184.027 87.8733 184.027 87.8733C184.027 87.8733 187.022 92.6776 190.267 94.3622C193.511 96.0468 199.314 97.357 199.314 97.357C199.314 97.357 201.31 103.16 201.872 103.409C202.433 103.721 203.12 102.848 203.12 102.848C203.12 102.848 203.681 101.038 203.993 100.601C204.305 100.165 207.113 98.792 207.55 103.035C207.986 107.277 204.742 110.522 203.868 110.834C202.995 111.146 202.433 111.957 202.433 111.957C202.433 111.957 199.189 117.198 198.066 118.758C196.943 120.318 188.457 125.558 185.774 126.12C183.092 126.682 180.284 126.245 178.412 123.687C176.603 121.129 172.734 115.763 171.923 113.33C171.05 110.896 170.488 94.7989 170.488 94.7989L177.289 85.8768C177.289 85.8768 176.603 88.5597 177.601 87.6862C178.537 86.8751 179.286 84.0674 179.286 84.0674Z" fill="white" stroke="#263238" stroke-miterlimit="10" stroke-linecap="round" stroke-linejoin="round"/>
<path d="M175.168 99.042C175.168 99.042 176.977 102.286 181.095 100.477" stroke="#263238" stroke-miterlimit="10" stroke-linecap="round" stroke-linejoin="round"/>
<path d="M182.842 104.033C182.842 104.033 181.844 107.839 181.844 108.713C181.844 109.586 182.405 110.148 183.404 110.397C184.402 110.647 186.398 109.836 186.398 109.836" stroke="#263238" stroke-miterlimit="10" stroke-linecap="round" stroke-linejoin="round"/>
<path d="M179.16 112.331C179.16 112.331 180.72 114.889 183.84 115.014C186.959 115.139 189.517 113.579 189.517 113.579" stroke="#263238" stroke-miterlimit="10" stroke-linecap="round" stroke-linejoin="round"/>
<path d="M190.143 101.724C190.143 101.724 192.389 104.407 195.82 102.285" stroke="#263238" stroke-miterlimit="10" stroke-linecap="round" stroke-linejoin="round"/>
<path d="M174.17 96.5463C174.17 96.5463 178.725 94.3002 181.969 96.6711" stroke="#263238" stroke-width="2" stroke-miterlimit="10" stroke-linecap="round" stroke-linejoin="round"/>
<path d="M189.33 97.4813C189.33 97.4813 194.696 96.0462 196.942 99.4778" stroke="#263238" stroke-width="2" stroke-miterlimit="10" stroke-linecap="round" stroke-linejoin="round"/>
<path d="M170.675 97.6687C170.675 97.6687 169.24 94.1123 168.242 96.9824C167.244 99.79 169.116 103.346 169.802 104.781C170.488 106.216 171.05 107.028 171.05 107.028L170.675 97.6687Z" stroke="#263238" stroke-miterlimit="10" stroke-linecap="round" stroke-linejoin="round"/>
<path d="M124.38 214.485C126.1 213.468 126.188 210.431 124.575 207.702C122.963 204.972 120.26 203.584 118.54 204.601C116.819 205.617 116.731 208.654 118.344 211.384C119.957 214.113 122.659 215.502 124.38 214.485Z" fill="white" stroke="#263238" stroke-miterlimit="10" stroke-linecap="round" stroke-linejoin="round"/>
<path d="M208.862 105.593C206.866 104.782 204.869 104.906 204.869 104.906" stroke="#263238" stroke-width="3" stroke-miterlimit="10" stroke-linecap="round" stroke-linejoin="round"/>
<path d="M191.516 136.289C196.257 132.171 201.311 127.304 203.994 123.249C209.921 114.327 212.667 107.838 210.296 106.278C209.859 105.966 209.36 105.779 208.923 105.592" stroke="#263238" stroke-width="2" stroke-miterlimit="10" stroke-linecap="round" stroke-linejoin="round"/>
<path d="M166.372 101.038C165.685 101.787 165.311 102.847 165.436 103.908C166.185 109.835 168.056 122.501 171.738 130.612C172.112 131.486 172.486 132.297 172.861 133.108" stroke="#263238" stroke-width="2" stroke-miterlimit="10" stroke-linecap="round" stroke-linejoin="round"/>
<path d="M169.241 99.7275L168.368 99.9147C167.619 100.102 166.933 100.476 166.434 101.038" stroke="#263238" stroke-width="3" stroke-miterlimit="10" stroke-linecap="round" stroke-linejoin="round"/>
<path d="M179.412 162.058C178.913 171.417 177.977 182.398 176.23 189.261C172.736 202.925 163.814 213.844 152.084 215.778C140.417 217.774 127.189 206.856 127.189 206.856" stroke="#263238" stroke-width="2" stroke-miterlimit="10" stroke-linecap="round" stroke-linejoin="round"/>
<path d="M172.924 133.107C177.167 142.092 179.288 145.024 179.974 145.024C180.411 145.024 185.777 141.156 191.517 136.227" stroke="#263238" stroke-width="3" stroke-miterlimit="10" stroke-linecap="round" stroke-linejoin="round"/>
<path d="M179.974 145.087C179.974 145.087 179.911 152.699 179.412 162.058" stroke="#263238" stroke-width="3" stroke-miterlimit="10" stroke-linecap="round" stroke-linejoin="round"/>
<path d="M161.193 201.303C161.193 201.303 152.209 198.994 150.212 198.62C148.216 198.308 135.737 194.939 134.365 195.875C133.054 196.748 123.633 203.923 122.884 204.859C122.136 205.733 119.889 209.414 120.201 210.412C120.513 211.41 122.385 211.286 122.884 210.724C123.383 210.163 125.879 208.166 125.879 208.166C125.879 208.166 123.758 210.849 124.631 211.286C125.505 211.722 128.063 211.598 128.063 211.598C128.063 211.598 128.375 212.346 130.621 212.721C132.805 213.033 134.053 213.719 136.486 213.844C138.919 213.968 148.528 212.159 148.528 212.159L152.271 210.287L161.131 209.851V201.303H161.193Z" fill="white" stroke="#263238" stroke-miterlimit="10" stroke-linecap="round" stroke-linejoin="round"/>
<path d="M125.879 208.166L131.869 203.05L136.486 201.178" stroke="#263238" stroke-miterlimit="10" stroke-linecap="round" stroke-linejoin="round"/>
<path d="M128.125 211.597L132.992 207.791L139.917 205.482" stroke="#263238" stroke-miterlimit="10" stroke-linecap="round" stroke-linejoin="round"/>
<path d="M131.994 212.533L137.485 210.225L142.476 209.227" stroke="#263238" stroke-miterlimit="10" stroke-linecap="round" stroke-linejoin="round"/>
<path d="M209.734 156.255L202.184 192.88L159.57 200.804L160.381 216.776C160.381 216.776 213.665 212.596 214.476 212.097C215.287 211.597 216.597 210.974 217.408 209.975C218.219 208.977 227.765 173.476 229.2 161.871C230.636 150.265 229.263 141.593 229.887 140.782C230.511 139.908 218.407 134.293 218.407 134.293" fill="#97C1FF"/>
<path d="M209.734 156.255L202.184 192.88L159.57 200.804L160.381 216.776C160.381 216.776 213.665 212.596 214.476 212.097C215.287 211.597 216.597 210.974 217.408 209.975C218.219 208.977 227.765 173.476 229.2 161.871C230.636 150.265 229.263 141.593 229.887 140.782C230.511 139.908 218.407 134.293 218.407 134.293" stroke="#263238" stroke-miterlimit="10" stroke-linecap="round" stroke-linejoin="round"/>
<path d="M109.22 198.37C109.22 198.37 102.044 195.999 101.545 195.749C101.046 195.5 98.0513 196.186 94.8692 196.623C91.7496 197.06 86.1967 196.186 86.6334 198.058C87.0078 199.743 89.0667 200.304 90.4394 200.491C91.812 200.741 91.812 200.741 91.812 200.741C91.812 200.741 87.5693 203.424 86.1967 204.11C84.824 204.796 82.6403 207.666 84.3873 208.602L85.9471 208.914C85.9471 208.914 84.3873 210.474 84.3873 211.41C84.3873 212.346 85.6351 213.095 85.6351 213.095C85.6351 213.095 85.0736 215.029 85.5103 215.902C85.9471 216.776 86.3838 217.4 86.3838 217.4C86.3838 217.4 85.9471 218.959 86.2591 219.646C86.571 220.332 89.5035 220.769 90.3146 220.457C91.1257 220.145 92.2488 217.088 92.2488 217.088C92.2488 217.088 97.5521 214.842 101.171 214.405C104.79 213.968 106.599 211.909 106.599 211.909L109.781 211.098C109.781 211.098 111.279 210.225 110.655 204.984C110.093 199.867 109.22 198.37 109.22 198.37Z" fill="white" stroke="#263238" stroke-miterlimit="10" stroke-linecap="round" stroke-linejoin="round"/>
<path d="M91.75 200.866L97.4277 202.114C97.4277 202.114 101.234 204.735 102.606 204.61C103.979 204.485 106.1 203.487 106.1 203.487" fill="white"/>
<path d="M91.75 200.866L97.4277 202.114C97.4277 202.114 101.234 204.735 102.606 204.61C103.979 204.485 106.1 203.487 106.1 203.487" stroke="#263238" stroke-miterlimit="10" stroke-linecap="round" stroke-linejoin="round"/>
<path d="M85.9473 208.977C85.9473 208.977 90.1276 209.788 90.8139 208.727C91.5002 207.729 87.3199 204.983 87.3199 204.983" fill="white"/>
<path d="M85.9473 208.977C85.9473 208.977 90.1276 209.788 90.8139 208.727C91.5002 207.729 87.3199 204.983 87.3199 204.983" stroke="#263238" stroke-miterlimit="10" stroke-linecap="round" stroke-linejoin="round"/>
<path d="M89.877 207.105L92.9342 205.296" stroke="#263238" stroke-miterlimit="10" stroke-linecap="round" stroke-linejoin="round"/>
<path d="M85.6348 213.157C85.6348 213.157 89.8151 214.155 90.8134 213.469C91.8116 212.782 89.2535 210.661 88.4424 210.287C87.6313 209.975 87.6313 209.975 87.6313 209.975" fill="white"/>
<path d="M85.6348 213.157C85.6348 213.157 89.8151 214.155 90.8134 213.469C91.8116 212.782 89.2535 210.661 88.4424 210.287C87.6313 209.975 87.6313 209.975 87.6313 209.975" stroke="#263238" stroke-miterlimit="10" stroke-linecap="round" stroke-linejoin="round"/>
<path d="M90.127 211.472L91.8116 210.474L93.6209 209.912" fill="white"/>
<path d="M90.127 211.472L91.8116 210.474L93.6209 209.912" stroke="#263238" stroke-miterlimit="10" stroke-linecap="round" stroke-linejoin="round"/>
<path d="M86.3848 217.463C86.3848 217.463 89.442 218.336 90.1283 218.149C90.8146 217.899 91.8129 216.776 90.3779 215.903C88.9429 215.029 87.8822 214.405 87.8822 214.405" fill="white"/>
<path d="M86.3848 217.463C86.3848 217.463 89.442 218.336 90.1283 218.149C90.8146 217.899 91.8129 216.776 90.3779 215.903C88.9429 215.029 87.8822 214.405 87.8822 214.405" stroke="#263238" stroke-miterlimit="10" stroke-linecap="round" stroke-linejoin="round"/>
<path d="M90.127 218.148C90.127 218.148 91.6868 219.396 90.3765 220.519L90.127 218.148Z" fill="white"/>
<path d="M90.127 218.148C90.127 218.148 91.6868 219.396 90.3765 220.519" stroke="#263238" stroke-miterlimit="10" stroke-linecap="round" stroke-linejoin="round"/>
<path d="M250.508 249.999H0.347345C0.141282 249.999 0.00390625 249.862 0.00390625 249.658C0.00390625 249.453 0.141282 249.316 0.347345 249.316H250.508C250.714 249.316 250.851 249.453 250.851 249.658C250.851 249.862 250.714 249.999 250.508 249.999Z" fill="#263238"/>
<path d="M292.956 249.999H256.689C256.483 249.999 256.346 249.862 256.346 249.658C256.346 249.453 256.483 249.316 256.689 249.316H292.956C293.162 249.316 293.3 249.453 293.3 249.658C293.3 249.862 293.162 249.999 292.956 249.999Z" fill="#263238"/>
<path d="M126.377 219.958C122.633 213.781 119.139 210.162 119.139 210.162C119.139 210.162 117.579 203.05 116.456 200.367C115.333 197.684 114.023 194.19 114.023 194.19C114.023 194.19 113.711 193.628 113.524 192.942C113.274 192.193 118.89 188.325 119.826 188.2C121.448 188.013 121.51 187.701 122.321 187.14C125.004 185.205 124.255 178.342 124.255 177.656C124.318 176.97 125.878 175.035 124.942 173.351C124.006 171.666 122.384 172.103 121.635 171.479C119.451 169.857 119.202 166.862 118.89 164.366C118.266 159.25 114.21 154.196 109.344 152.512C109.344 152.512 102.668 150.203 93.8078 153.323C84.9481 156.442 80.1438 163.306 78.9584 169.982C77.7729 176.658 81.4541 185.205 88.1301 188.138C91.936 189.822 99.1736 190.384 99.1736 190.384C99.1736 190.384 98.1753 191.445 98.3625 192.069C98.4873 192.443 98.7992 192.817 99.0488 193.004C97.8633 194.128 95.0557 195.687 92.7471 199.244C89.9395 203.549 88.2549 216.714 87.4438 225.511C86.6327 234.308 88.1301 238.364 88.1301 238.364C88.1301 238.364 98.3625 231.625 107.409 228.568C116.519 225.511 130.183 230.939 130.183 230.939C130.183 230.939 130.12 226.135 126.377 219.958Z" fill="white" stroke="#263238" stroke-miterlimit="10" stroke-linecap="round" stroke-linejoin="round"/>
<path d="M110.217 190.135C110.716 190.197 111.277 190.26 111.901 190.197" stroke="#263238" stroke-miterlimit="10" stroke-linecap="round" stroke-linejoin="round"/>
<path d="M104.977 187.639C104.977 187.639 105.912 188.762 107.909 189.573" stroke="#263238" stroke-miterlimit="10" stroke-linecap="round" stroke-linejoin="round"/>
<path d="M130.308 227.258C130.308 227.258 121.76 223.327 112.026 224.575C102.231 225.823 93.5582 230.003 89.5027 232.935C85.4472 235.868 86.1335 240.048 87.6933 243.854C89.2531 247.598 93.0591 253.463 101.42 255.022C109.78 256.582 119.701 252.963 122.945 250.156C126.19 247.348 132.429 239.674 132.429 233.934C132.366 228.194 130.308 227.258 130.308 227.258Z" fill="#97C1FF" stroke="#263238" stroke-miterlimit="10" stroke-linecap="round" stroke-linejoin="round"/>
<path d="M138.107 228.381C138.107 228.381 146.655 223.639 152.333 227.133C158.073 230.627 151.771 244.041 151.771 244.041C151.771 244.041 140.354 233.934 138.107 228.381Z" fill="white" stroke="#263238" stroke-miterlimit="10" stroke-linecap="round" stroke-linejoin="round"/>
<path d="M126.252 250.717C126.252 250.717 132.366 253.525 137.732 253.525C143.098 253.525 149.212 251.84 149.212 251.84L130.931 240.859L126.252 250.717Z" fill="white" stroke="#263238" stroke-miterlimit="10" stroke-linecap="round" stroke-linejoin="round"/>
<path d="M106.349 233.248C106.349 233.248 100.359 237.865 100.359 245.29C100.359 252.714 120.762 254.524 126.19 250.718C131.618 246.912 132.928 244.728 132.928 244.728C132.928 244.728 142.038 250.718 145.532 251.841C149.026 252.964 155.764 253.65 158.509 252.839C161.317 252.028 164.125 249.907 164.686 248.347C165.248 246.787 165.248 244.728 165.248 244.728C165.248 244.728 166.371 241.796 164.811 241.109C163.251 240.423 162.69 240.548 159.071 241.671C155.452 242.794 151.272 242.794 151.272 242.794C151.272 242.794 147.091 236.056 144.845 232.312C142.599 228.568 138.668 225.449 132.991 223.951C127.188 222.329 114.772 225.386 106.349 233.248Z" fill="white" stroke="#263238" stroke-miterlimit="10" stroke-linecap="round" stroke-linejoin="round"/>
<path d="M136.049 236.617C136.174 236.056 136.236 235.494 136.298 234.933" stroke="#263238" stroke-miterlimit="10" stroke-linecap="round" stroke-linejoin="round"/>
<path d="M132.928 244.728C132.928 244.728 134.612 241.796 135.611 238.427" stroke="#263238" stroke-miterlimit="10" stroke-linecap="round" stroke-linejoin="round"/>
<path d="M165.247 244.728C165.247 244.728 163.438 244.167 162.314 244.853" stroke="#263238" stroke-miterlimit="10" stroke-linecap="round" stroke-linejoin="round"/>
<path d="M164.624 247.411C164.624 247.411 163.75 246.975 162.689 247.349" stroke="#263238" stroke-miterlimit="10" stroke-linecap="round" stroke-linejoin="round"/>
<path d="M163.439 249.845C163.439 249.845 162.69 249.533 161.941 249.595" stroke="#263238" stroke-miterlimit="10" stroke-linecap="round" stroke-linejoin="round"/>
<path d="M101.045 195.625C101.045 195.625 97.4263 194.939 94.8682 200.117C92.3725 205.296 94.7434 213.282 95.4297 216.901C96.1161 220.52 101.295 234.932 102.418 237.428C103.541 239.924 106.161 244.291 106.161 244.291C106.161 244.291 109.219 253.4 110.092 254.336C110.903 255.335 112.338 255.335 112.338 255.335C112.338 255.335 113.149 255.771 113.898 255.896C114.584 256.021 116.394 255.647 116.394 255.647C116.394 255.647 118.203 257.019 119.077 256.208C119.888 255.397 119.638 254.524 119.513 253.525C119.389 252.527 119.264 250.842 119.264 250.842C119.264 250.842 120.512 252.964 120.636 253.775C120.761 254.586 122.571 255.023 122.758 253.775C122.883 252.527 123.444 251.092 122.196 248.908C120.948 246.662 119.95 243.854 117.454 241.671C114.959 239.424 114.397 238.613 114.085 238.177C113.836 237.74 110.03 217.462 110.03 217.462C110.03 217.462 110.841 205.421 110.591 202.114" fill="white"/>
<path d="M101.045 195.625C101.045 195.625 97.4263 194.939 94.8682 200.117C92.3725 205.296 94.7434 213.282 95.4297 216.901C96.1161 220.52 101.295 234.932 102.418 237.428C103.541 239.924 106.161 244.291 106.161 244.291C106.161 244.291 109.219 253.4 110.092 254.336C110.903 255.335 112.338 255.335 112.338 255.335C112.338 255.335 113.149 255.771 113.898 255.896C114.584 256.021 116.394 255.647 116.394 255.647C116.394 255.647 118.203 257.019 119.077 256.208C119.888 255.397 119.638 254.524 119.513 253.525C119.389 252.527 119.264 250.842 119.264 250.842C119.264 250.842 120.512 252.964 120.636 253.775C120.761 254.586 122.571 255.023 122.758 253.775C122.883 252.527 123.444 251.092 122.196 248.908C120.948 246.662 119.95 243.854 117.454 241.671C114.959 239.424 114.397 238.613 114.085 238.177C113.836 237.74 110.03 217.462 110.03 217.462C110.03 217.462 110.841 205.421 110.591 202.114" stroke="#263238" stroke-miterlimit="10" stroke-linecap="round" stroke-linejoin="round"/>
<path d="M116.456 255.584C116.456 255.584 115.333 253.213 114.896 251.841" stroke="#263238" stroke-miterlimit="10" stroke-linecap="round" stroke-linejoin="round"/>
<path d="M112.401 255.335C112.401 255.335 111.715 253.65 111.59 251.716" stroke="#263238" stroke-miterlimit="10" stroke-linecap="round" stroke-linejoin="round"/>
<path d="M117.985 171.992C118.306 171.868 118.336 171.168 118.051 170.429C117.766 169.689 117.275 169.19 116.953 169.314C116.632 169.438 116.602 170.138 116.887 170.877C117.172 171.617 117.663 172.116 117.985 171.992Z" fill="#263238"/>
<path d="M114.646 167.299C114.646 167.299 115.395 164.991 117.517 165.677" stroke="#263238" stroke-miterlimit="10" stroke-linecap="round" stroke-linejoin="round"/>
<path d="M121.447 179.403C121.447 179.403 122.695 179.84 123.444 179.216" stroke="#263238" stroke-miterlimit="10" stroke-linecap="round" stroke-linejoin="round"/>
<path d="M109.968 155.257C109.968 155.257 111.278 155.507 111.902 156.13L112.65 157.004L113.399 157.254L113.274 154.945L113.337 154.82C112.151 153.822 110.779 153.073 109.344 152.574C109.344 152.574 102.668 150.266 93.8078 153.385C84.9481 156.505 80.1438 163.368 78.9584 170.044C77.7729 176.72 81.4541 185.268 88.1301 188.2C89.8147 188.949 92.248 189.511 94.3693 189.823L95.1804 189.698C95.1804 189.698 96.3035 189.698 96.5531 189.698C96.8027 189.698 98.6744 189.386 98.6744 189.386L96.8027 188.387C97.4266 188.45 99.0488 187.826 99.0488 187.826L98.0505 187.077L99.2984 186.703L97.8633 185.954L99.6727 185.517L97.9257 184.894L100.858 184.519C100.858 184.519 97.9257 182.835 97.0522 181.836C96.1787 180.9 99.8599 173.351 99.8599 173.351C99.8599 173.351 102.044 174.536 102.356 174.661C102.668 174.724 101.607 172.415 101.607 172.415L103.915 173.039C103.915 173.039 103.167 172.477 102.855 172.165C102.543 171.853 102.231 170.98 101.981 170.481C101.732 169.982 100.546 167.673 100.546 167.673L102.231 167.86C102.231 167.86 101.42 167.299 100.858 166.675C100.297 166.051 97.8009 164.865 97.8009 164.865L99.9847 164.741L97.489 163.368L102.73 162.619C102.73 162.619 101.482 161.683 99.7975 160.748C98.1129 159.812 96.3659 160.124 96.3659 160.124L97.0522 158.751C98.4873 157.628 101.981 156.817 101.981 156.817H98.7368L101.295 155.943C101.295 155.943 103.603 155.631 105.038 155.507C106.411 155.382 111.215 157.191 111.215 157.191L109.968 155.257Z" fill="#97C1FF" stroke="#263238" stroke-miterlimit="10" stroke-linecap="round" stroke-linejoin="round"/>
<path d="M101.358 175.223C101.358 175.223 98.6125 171.417 95.4929 172.228C92.3732 173.039 93.9954 179.465 95.4929 181.649C96.9903 183.833 100.983 183.708 102.044 182.585C103.167 181.462 103.167 181.462 103.167 181.462" fill="white"/>
<path d="M101.358 175.223C101.358 175.223 98.6125 171.417 95.4929 172.228C92.3732 173.039 93.9954 179.465 95.4929 181.649C96.9903 183.833 100.983 183.708 102.044 182.585C103.167 181.462 103.167 181.462 103.167 181.462" stroke="#263238" stroke-miterlimit="10" stroke-linecap="round" stroke-linejoin="round"/>
</svg>
